<svg xmlns="http://www.w3.org/2000/svg" viewBox="0 0 65.2 62.47"><defs><style>.cls-1{fill:#1d1d1b;}.cls-2{fill:#d0043c;}.cls-3{fill:#f9b122;}.cls-4{fill:#ef7b10;}</style></defs><g id="Lager_2" data-name="Lager 2"><g id="Lager_1-2" data-name="Lager 1"><path class="cls-1" d="M0,56.05H1.56L4,60.77H4V56.05H5.19v6.31H3.65L1.23,57.64h0v4.72H0Z"/><path class="cls-1" d="M10,55.94a3,3,0,0,1,3.1,3.25A3,3,0,0,1,10,62.47,3,3,0,0,1,7,59.19,2.92,2.92,0,0,1,10,55.94Zm0,5.54c1.3,0,1.78-1.15,1.78-2.29S11.3,56.94,10,56.94s-1.77,1.13-1.77,2.25S8.75,61.48,10,61.48Z"/><path class="cls-1" d="M15,56.05h1.37c1.36,0,3,0,3,1.71A1.45,1.45,0,0,1,18,59.23h0c.35,0,.54.37.67.66l1,2.46H18.28l-.76-2c-.18-.47-.34-.65-.88-.65h-.4v2.62H15Zm1.27,2.69h.41c.63,0,1.34-.09,1.34-.87s-.7-.82-1.34-.82h-.41Z"/><path class="cls-1" d="M21.65,56.05H23c1.36,0,3,0,3,1.71a1.45,1.45,0,0,1-1.3,1.47h0c.34,0,.54.37.67.66l1,2.46H25l-.76-2c-.18-.47-.34-.65-.88-.65h-.4v2.62H21.65Zm1.27,2.69h.42c.62,0,1.33-.09,1.33-.87s-.7-.82-1.33-.82h-.42Z"/><path class="cls-1" d="M28.56,56.05h1.27v2.71l2.28-2.71h1.55l-2.6,3,2.71,3.33H32.12l-2.28-2.93h0v2.93H28.56Z"/><path class="cls-1" d="M38,55.94a3,3,0,0,1,3.1,3.25,3.1,3.1,0,1,1-6.19,0A2.92,2.92,0,0,1,38,55.94Zm0,5.54c1.3,0,1.77-1.15,1.77-2.29S39.3,56.94,38,56.94s-1.77,1.13-1.77,2.25S36.75,61.48,38,61.48Zm-1.45-6v-1h1v1Zm2.91-1v1h-1v-1Z"/><path class="cls-1" d="M43.09,56.05H44.7c1.37,0,2.63.4,2.63,1.91s-1.08,2-2.44,2h-.53v2.39H43.09ZM44.36,59h.44c.63,0,1.2-.21,1.2-.94s-.55-1-1.2-1h-.44Z"/><path class="cls-1" d="M49,56.05h1.26v6.31H49Z"/><path class="cls-1" d="M52.49,56.05h1.56l2.41,4.72h0V56.05h1.22v6.31H56.14l-2.42-4.72h0v4.72H52.49Z"/><path class="cls-1" d="M64.93,57.27a4.28,4.28,0,0,0-1.63-.33A2.15,2.15,0,0,0,61,59.23a2.08,2.08,0,0,0,2.14,2.25,3.71,3.71,0,0,0,.84-.09V59.74H62.65v-1H65.2v3.41a8.5,8.5,0,0,1-2.05.32c-2,0-3.46-1-3.46-3.16a3.13,3.13,0,0,1,3.46-3.37A6.37,6.37,0,0,1,65,56.2Z"/><path class="cls-2" d="M33,35.64c3.11,5.61,6.81,12.23,6.81,12.23a.6.6,0,0,0,.52.32.61.61,0,0,0,.61-.58V37l-.07-.14v-5l.07-.13V5.37a6,6,0,0,1,2.58-.56c2.86,0,5.17,1.84,7.66,1.84,3.42,0,4.19-1.82,8.13-1.82a9.18,9.18,0,0,1,4.44,1.25V3.78a10.64,10.64,0,0,0-4.44-1c-4.44,0-5.43,1.83-8.11,1.83-2,0-4.43-1.84-7.7-1.84a10.16,10.16,0,0,0-4.88,1.43V34.71c0,2,.13,4.55.13,4.66,0,1,.21,2.25.24,2.64,0,0,0,.06-.06.06a.07.07,0,0,1-.05,0,18.8,18.8,0,0,0-1-2.35c-.56-1-3.27-5.91-5.08-9.18"/><path class="cls-3" d="M33.12,14.2,25.38.29A.62.62,0,0,0,24.86,0a.61.61,0,0,0-.6.59V11.31l.06.08v5l-.07.12V42.79a5.8,5.8,0,0,1-2.58.57c-2.86,0-5.18-1.84-7.66-1.84-3.42,0-4.19,1.82-8.13,1.82a9.09,9.09,0,0,1-4.46-1.27v2.31a10.69,10.69,0,0,0,4.46,1.06c4.43,0,5.43-1.83,8.1-1.83,2,0,4.44,1.84,7.71,1.84A10.16,10.16,0,0,0,26.58,44V15.36l0-1.86c0-2-.12-4.56-.12-4.67,0-1-.23-2.43-.26-2.82A.06.06,0,0,1,26.24,6a.07.07,0,0,1,.05,0A29.07,29.07,0,0,0,27.6,9l1.33,2.38c1.24,2.29,3,5.47,4.19,7.53"/><path class="cls-4" d="M33.12,27.32l-2.73-4.9c-.29-.53-7.11-12.67-7.31-13.09-.43-.9-.93-2.24-1.11-2.65a.07.07,0,0,0,0,0,.06.06,0,0,0-.06.06c0,.4.26,1.9.25,2.87,0,.1.15,4.08.15,4.71V41.43a2.41,2.41,0,0,1-.59.09c-2.86,0-5.18-1.84-7.66-1.84-3.42,0-4.19,1.83-8.13,1.83a9.08,9.08,0,0,1-4.44-1.3V37.83a8.9,8.9,0,0,0,4.45,1.59c3.31,0,4.19-1.82,8.13-1.82,2.28,0,4.15,1,5.94,1.56V.5a.39.39,0,0,1,.39-.39.41.41,0,0,1,.33.19s8.57,15.35,12.45,22.35"/><path class="cls-4" d="M32.88,22.22l1.89,3.43c.66,1.15,6.77,12.06,7.32,13.2.43.9.88,2,1.06,2.38a.07.07,0,0,0,.05,0,.06.06,0,0,0,.06-.06c0-.4-.17-1.63-.16-2.6,0-.1-.14-4.09-.14-4.71V6.69a2.22,2.22,0,0,1,.59-.07c2.86,0,5.18,1.83,7.66,1.83,3.42,0,4.2-1.82,8.13-1.82a9.14,9.14,0,0,1,4.42,1.28v2.38a8.87,8.87,0,0,0-4.42-1.57c-3.31,0-4.2,1.82-8.13,1.82-2.28,0-4.14-1-5.92-1.56V47.67a.4.4,0,0,1-.75.17L33,27.06"/><path class="cls-3" d="M32.89,18.48,34.28,21,49.21,47.84a.22.22,0,0,0,.19.11.21.21,0,0,0,.2-.21V14.35a10.59,10.59,0,0,0,1.61.14c4.29,0,5.47-1.83,8.13-1.83,1.47,0,3.4,1.23,4.42,2V12.16a8.92,8.92,0,0,0-4.42-1.61c-3.31,0-4.19,1.83-8.13,1.83a11.19,11.19,0,0,1-3.92-.86V33.13c0,.63.12,4.55.12,4.65,0,1,.19,2.45.21,2.87a.06.06,0,0,1-.06.05.05.05,0,0,1,0,0c-.17-.43-.93-2.23-1.41-3.1-.63-1.13-6-10.82-6.53-11.79L32.93,13.86"/><path class="cls-2" d="M33.22,31.31l-2.31-4.17C30.09,25.63,16,.35,16,.35A.2.2,0,0,0,15.8.24a.2.2,0,0,0-.2.21V33.8A9.45,9.45,0,0,0,14,33.66c-4.29,0-5.47,1.83-8.12,1.83-1.48,0-3.43-1.25-4.45-2V36A8.93,8.93,0,0,0,5.86,37.6c3.31,0,4.19-1.83,8.13-1.83a11.3,11.3,0,0,1,3.93.86V15c0-.62-.11-4.54-.12-4.64a28.8,28.8,0,0,0-.27-3,.06.06,0,0,1,.06-.06.05.05,0,0,1,.05,0c.17.43.74,1.77,1.17,2.67.25.53,8.37,15.1,10,18l4.29,7.71"/></g></g></svg>