<?xml version="1.0" encoding="UTF-8"?>
<!-- Generator: Adobe Illustrator 25.0.1, SVG Export Plug-In . SVG Version: 6.00 Build 0)  -->
<svg version="1.1" id="Lager_1" xmlns="http://www.w3.org/2000/svg" xmlns:xlink="http://www.w3.org/1999/xlink" x="0px" y="0px" viewBox="0 0 872.3 205.2" style="enable-background:new 0 0 872.3 205.2;" xml:space="preserve">
<style type="text/css">
	.st0{fill:none;}
</style>
<path class="st0" d="M196.8,102.6c0,52-42.1,94.2-94.1,94.2c-52,0-94.2-42.1-94.2-94.1c0-52,42.1-94.2,94.1-94.2c0,0,0,0,0.1,0  C154.6,8.5,196.8,50.6,196.8,102.6z"/>
<path d="M0,102.6c0,56.7,45.9,102.6,102.6,102.6s102.6-45.9,102.6-102.6C205.1,45.9,159.2,0,102.6,0C45.9,0,0,45.9,0,102.6z   M2.7,102.6c0-55.2,44.7-99.9,99.9-99.8c55.2,0,99.9,44.7,99.8,99.9c0,55.1-44.7,99.8-99.9,99.8C47.4,202.4,2.8,157.7,2.7,102.6  L2.7,102.6z"/>
<path d="M253.6,83.3c0,6.1,0.4,7.2,6.4,7.6v1.7c-4.4-0.3-8-0.6-10.9-0.6s-6.5,0.3-11.1,0.6v-1.7c6-0.3,6.4-1.7,6.4-8.6V39.7  c0-6.4-0.3-8-5.6-8.4v-1.8c4.8,0.4,8.2,0.6,10.3,0.6s5.5-0.3,10.1-0.6v1.8c-5.2,0.4-5.6,2-5.6,8v20.5l17.5-20.2  c1.9-2.2,2.9-3.9,2.9-5.2c0-2.2-1.8-2.8-5.8-3.1v-1.8c4.5,0.4,7.6,0.6,9.6,0.6s5.2-0.3,9.5-0.6v1.8c-5.9,0.9-9,3.4-12.5,7.4  l-15.2,17.2l20,24.9c4.8,6,8,9.6,12.3,10v1.7c-4.7-0.3-8.6-0.6-11.7-0.6s-7,0.3-11.8,0.6v-1.7c3-0.3,4.4-1,4.4-2.7  c0-1-0.9-2.8-2.7-5.1l-16.4-21L253.6,83.3L253.6,83.3z"/>
<path d="M318.9,62.6c0-4.1-0.4-5-4.1-5v-1.5c3.5-0.2,7.1-0.7,10.5-1.4V83c0,5.7,0.4,7.4,5.5,7.7v1.6c-3.8,0-7.5,0.2-11.2,0.7  l-0.7-8.6c-3.1,6.2-7.4,9.2-12.9,9.2c-8,0-10.3-4.9-10.3-14.7V62.6c0-4.1-0.4-5-4.1-5v-1.5c3.5-0.2,7.1-0.7,10.5-1.4v28.2  c0,6.1,0.9,9.2,5.3,9.2c4.9,0,11.6-6.2,11.6-14.4L318.9,62.6z"/>
<path d="M344.6,83.4v2.2c0,4.4,0.3,5.1,4.4,5.5v1.5c-3.2-0.2-5.7-0.3-7.6-0.3c-2.2,0-4.7,0.2-7.6,0.3v-1.5c4.2-0.4,4.4-1,4.4-5.9  V62.6c0-4.1-0.3-5-4.2-5v-1.5c3.6-0.3,7.1-0.7,10.6-1.4v9.2c3.1-6.2,7.3-9.2,12.9-9.2c8,0,10.3,4.8,10.3,14.7v16.2  c0,4.4,0.3,5.1,4.4,5.5v1.5c-3.2-0.2-5.7-0.3-7.6-0.3c-2.2,0-4.7,0.2-7.6,0.3v-1.5c4.2-0.4,4.4-1,4.4-5.9V65.5  c0-6.1-0.9-9.2-5.3-9.2c-4.9,0-11.6,6.1-11.6,14.4L344.6,83.4z"/>
<path d="M375.2,68.2c0-7.8,5.8-13.5,13-13.5c3.3,0,6.4,1.2,8.8,3.4c2.7-2.3,4.8-3.7,7.5-3.7c3.4,0,5.2,1.6,5.2,4.5  c0.1,1.4-1,2.5-2.3,2.6c-0.1,0-0.2,0-0.3,0c-3.7,0-2-5-4.7-5c-1.3,0-2.9,0.9-4.5,2.6c2.3,2.4,3.6,5.6,3.5,8.9c0,8.3-5.3,13-15.6,13  c-2.4,0.1-4.2,2-4.2,4.4c0,4,3.3,3.9,11.1,4.4c9.9,0.6,15.7,1.9,15.7,11.6c0,9.9-7,16.2-18.2,16.2c-10.1,0-16.7-5.7-16.7-12.5  c0-5.5,3.2-8.9,8-8.9c1.6,0,3.2,0.4,4.7,1.1v0.5h-0.8c-4.7,0-7.4,3-7.4,8c0,6.2,4.4,10,12.3,10c8.5,0,14-4.7,14-11.1  c0-7.2-4.7-7.9-14-8.6c-7.3-0.6-11.4-2-11.4-8.1c0-3.3,1.5-5.5,4.5-7.8C378.3,78.3,375.1,73.5,375.2,68.2z M395.2,67.6  c0-7.8-2.1-11.6-7-11.6s-6.9,3.8-6.9,11.6s2.1,11.6,6.9,11.6S395.2,75.5,395.2,67.6L395.2,67.6z"/>
<path d="M423,84.9c0,5.3,0.2,5.7,5.3,6.1v1.5c-3.2-0.2-5.9-0.3-8-0.3c-2.6,0-5.6,0.2-9,0.3v-1.5c5.1-0.4,5.3-0.9,5.3-6.1V35.8  c0-4.2-0.3-5.1-4.6-5.1h-0.7v-1.5c4.1-0.2,8.2-0.6,12.2-1.4c-0.3,7.7-0.5,12.6-0.5,15L423,84.9L423,84.9z"/>
<path d="M440.1,83.7c2.8,0,5,2.2,5,5s-2.2,5-5,5c-2.7-0.1-4.9-2.3-5-5C435.2,86,437.4,83.8,440.1,83.7z"/>
<path d="M275.1,130.8c1.4-3.5,2.4-6.6,2.4-9.3s-1.7-3.7-5.5-4v-1.8c2.6,0.4,5.2,0.6,7.8,0.6c2.4,0,4.9-0.2,7.3-0.6v1.8  c-5.5,0.7-6.6,5.1-9.7,13l-18.5,48.8h-0.4l-18.3-54c-1.6-4.9-2.9-7.4-6.8-7.7v-1.8c4.5,0.4,7.7,0.6,9.8,0.6c1.9,0,5.1-0.3,9.6-0.6  v1.8c-3.2,0.5-4.1,0.9-4.1,2.9c0,1.1,0.2,2.2,0.5,3.2l13.6,40.5L275.1,130.8z"/>
<path d="M295.9,171.7c0,4.4,0.3,5.1,4.4,5.5v1.5c-3.2-0.2-5.7-0.3-7.6-0.3c-2.2,0-4.7,0.2-7.6,0.3v-1.5c4.2-0.4,4.4-1,4.4-5.9v-22.6  c0-4.1-0.4-5-4.1-5v-1.6c3.5-0.2,7.1-0.7,10.5-1.4V171.7L295.9,171.7z"/>
<path d="M315.2,167.2c0,6.4,0.3,9.9,4.1,9.9c2.2,0,3.7-1.5,4.5-4.7l1.1,0.2c-0.9,4.6-4,7.1-8.1,7.1c-5.8,0-8.3-3.2-8.3-10V169  l0.6-25.2H306v-0.7c3.5-1.6,6.1-5.5,8-11.9h1.3v11h7.2v1.6h-7.2L315.2,167.2z"/>
<path d="M337.6,167.2c0,6.4,0.3,9.9,4.2,9.9c2.2,0,3.7-1.5,4.5-4.7l1.1,0.2c-0.9,4.6-4,7.1-8.1,7.1c-5.8,0-8.3-3.2-8.3-10V169  l0.6-25.2h-3.2v-0.7c3.5-1.6,6.1-5.5,8-11.9h1.3v11h7.2v1.6h-7.2L337.6,167.2z"/>
<path d="M357,159.5c0,10.5,4.8,17,11.8,17c5.1,0,8.3-2.9,9.7-7.7l1.5,0.4c-1.6,6.7-6.7,10.5-13.9,10.5c-9.3,0-15.9-7.1-15.9-18.1  c0-12.5,7.9-20.9,16.5-20.9c6.8,0.1,12.4,5.5,12.6,12.4c0,1.7-1,1.7-3.1,1.7h-18.8C357.2,156.6,357,158,357,159.5z M367,152.8  c5.7,0,7.1-0.1,7.1-3.7c0-4.2-2.8-6.9-7.6-6.9s-8,3.5-8.9,10.6H367z"/>
<path d="M404.1,140.8c2.8,0,4.7,1.8,4.7,4.1s-1.2,3.5-3.3,3.5c-1.4,0.1-2.7-0.9-2.8-2.3c-0.3-1.7-0.2-2.6-1.5-2.6  c-2,0-6.8,5.8-6.8,14.9v12.3c0,5.8,0.2,6.1,5.9,6.7v1.5c-3.5-0.2-6.5-0.3-9.2-0.3c-1.5,0-4.1,0.2-7.6,0.3v-1.5  c4.2-0.4,4.4-1,4.4-5.9v-22.5c0-4.1-0.3-5-4.2-5v-1.6c3.4-0.2,6.8-0.6,10.2-1.4v10C396.6,144,399.8,140.8,404.1,140.8z"/>
<path d="M421.6,169.5v2.2c0,4.4,0.3,5.1,4.4,5.5v1.5c-3.2-0.2-5.8-0.3-7.7-0.3c-2.2,0-4.6,0.2-7.5,0.3v-1.5c4.2-0.4,4.4-1,4.4-5.9  v-49.4c0-4.2-0.4-5.1-4.7-5.1h-0.7v-1.5c4.1-0.2,8.2-0.6,12.3-1.4c-0.3,7.7-0.5,12.6-0.5,15V150c3.1-6.2,7.3-9.2,12.9-9.2  c8,0,10.3,4.8,10.3,14.7v16.2c0,4.4,0.3,5.1,4.4,5.5v1.5c-3.2-0.2-5.7-0.3-7.6-0.3c-2.2,0-4.7,0.2-7.6,0.3v-1.5  c4.2-0.4,4.4-1,4.4-5.9v-19.7c0-6.1-0.9-9.2-5.3-9.2c-4.9,0-11.5,6.1-11.5,14.4V169.5z"/>
<path d="M458.6,159.5c0,10.5,4.8,17,11.8,17c5.1,0,8.3-2.9,9.7-7.7l1.5,0.4c-1.7,6.7-6.7,10.5-13.9,10.5c-9.3,0-15.9-7.1-15.9-18.1  c0-12.5,7.9-20.9,16.5-20.9c6.8,0.1,12.4,5.5,12.6,12.4c0,1.7-1,1.7-3.1,1.7h-18.9C458.7,156.6,458.6,158,458.6,159.5z M468.6,152.8  c5.7,0,7.1-0.1,7.1-3.7c0-4.2-2.8-6.9-7.6-6.9s-8,3.5-8.9,10.6H468.6z"/>
<path d="M496,167.2c0,6.4,0.3,9.9,4.2,9.9c2.2,0,3.7-1.5,4.5-4.7l1.1,0.2c-0.9,4.6-4,7.1-8.1,7.1c-5.8,0-8.3-3.2-8.3-10V169  l0.6-25.2h-3.2v-0.7c3.5-1.6,6.1-5.5,8-11.9h1.2v11h7.2v1.6H496V167.2z"/>
<path d="M511.9,166v0.3c0,7.7,3.9,12.1,9.4,12.1c4.4,0,7.2-2.9,7.2-7.9c0-5.9-4-6.8-9.8-8.8c-5.6-1.9-8.3-5.3-8.3-10.2  c0-6.5,4.4-10.7,10.2-10.7c4.4,0,6.8,1.9,7.8,1.9c0.8,0,1.4-0.7,1.5-1.9h1.2c-0.3,2.5-0.4,4.7-0.4,6.4c0,1.2,0.1,2.9,0.3,5.4h-1.2  c-0.4-6.9-3.2-10.3-8.6-10.3c-3.3-0.2-6.1,2.4-6.3,5.7c0,0.2,0,0.5,0,0.7c0,5,4,5.8,9.7,7.6c6.2,2,8.9,5.3,8.9,11.2  c0,7.8-4.7,12.3-11.9,12.3c-5.4,0-7.7-2.9-9-2.9c-0.8,0-1.4,0.7-1.6,2.1h-1.4c0.7-4.3,1.1-8.6,1.1-12.9L511.9,166z"/>
<path d="M546.4,179.7c-4.4,0-8-3.5-8-8.5c0-7.1,6.7-13,18.8-14.4v-6.3c0-5.6-0.5-8.4-6.7-8.4c-4.2,0-5.4,1-5.6,4  c-0.2,2.6-0.5,4.2-3.2,4.2c-1.6,0.1-2.9-1.1-3-2.6c0-0.1,0-0.2,0-0.2c0-3.5,4.3-6.7,11.6-6.7c10.3,0,13.3,4.1,13.3,12.7v19.4  c0,2.9,0.8,4.2,2.4,4.2c1,0,2-0.8,3.4-2l1,1.1c-1.5,2.2-4,3.5-6.7,3.5c-3.4,0-5.9-2.3-6.5-6.2C553,177.5,549.8,179.7,546.4,179.7z   M557.2,158.2c-8.5,1-12.6,4.4-12.6,10.5c0,4.2,2.3,6.6,5.4,6.6c2.8,0,4.6-1.5,7.2-3.9V158.2z"/>
<path d="M582.4,128.9v31.3l8.4-9.7c1.7-2,2.7-3.5,2.7-4.5c0-1.5-1.4-2.3-4-2.3v-1.6c3.1,0.2,5.5,0.4,7.4,0.4c1.9,0,4.5-0.2,7.5-0.4  v1.6c-5.7,0.1-7.7,2.7-11.1,6.5l-5.9,6.6l11.3,13.1c4.2,4.8,7,7.3,8.8,7.3v1.5c-3.4-0.2-6.2-0.3-8.2-0.3c-2.2,0-4.8,0.2-8,0.3v-1.5  c2.2-0.2,3.2-0.7,3.2-1.7c-0.2-1-0.7-2-1.5-2.8l-9.7-11.3l-1,1.1v9.2c0,4.4,0.3,5.1,4.4,5.5v1.5c-3.2-0.2-5.8-0.3-7.7-0.3  c-2.2,0-4.6,0.2-7.5,0.3v-1.5c4.2-0.4,4.4-1,4.4-5.9v-49.4c0-4.2-0.4-5.1-4.7-5.1h-0.7v-1.5c4.1-0.2,8.2-0.6,12.3-1.4  C582.6,121.6,582.4,126.6,582.4,128.9z"/>
<path d="M617.4,179.7c-4.4,0-8-3.5-8-8.5c0-7.1,6.8-13,18.8-14.4v-6.3c0-5.6-0.5-8.4-6.7-8.4c-4.2,0-5.4,1-5.6,4  c-0.2,2.6-0.5,4.2-3.2,4.2c-1.5,0.1-2.9-1.1-3-2.6c0-0.1,0-0.2,0-0.2c0-3.5,4.3-6.7,11.6-6.7c10.3,0,13.3,4.1,13.3,12.7v19.4  c0,2.9,0.8,4.2,2.4,4.2c1,0,2-0.8,3.4-2l1,1.1c-1.5,2.2-4,3.5-6.7,3.5c-3.4,0-5.9-2.3-6.5-6.2C623.9,177.5,620.8,179.7,617.4,179.7z   M628.2,158.2c-8.5,1-12.6,4.4-12.6,10.5c0,4.2,2.3,6.6,5.4,6.6c2.8,0,4.6-1.5,7.2-3.9V158.2z"/>
<path d="M665.3,116.8h-0.7v-1.5c4.2-0.2,8.3-0.6,12.4-1.4c-0.3,7.7-0.5,12.6-0.5,15v40.2c0,5.7,0.4,7.4,5.5,7.7v1.6  c-3.8,0-7.6,0.2-11.3,0.7l-0.8-6.6c-2.9,4.9-6.8,7.1-11.9,7.1c-9.1,0-16.5-7.2-16.5-18.5c0-12,7.6-20.2,16.9-20.2  c4.6,0,8.5,2.4,11.5,7.4v-26.3C669.9,117.7,669.5,116.8,665.3,116.8z M669.9,156.7c0-9.7-5.2-14.6-11.2-14.6c-7.2,0-10,6-10,18.1  s2.9,18.1,10,18.1c5.9,0,11.2-5.6,11.2-12.4V156.7z"/>
<path d="M690.5,159.5c0,10.5,4.8,17,11.8,17c5.1,0,8.3-2.9,9.7-7.7l1.5,0.4c-1.6,6.7-6.7,10.5-13.9,10.5c-9.3,0-15.9-7.1-15.9-18.1  c0-12.5,7.9-20.9,16.5-20.9c6.8,0.1,12.4,5.5,12.6,12.4c0,1.7-1,1.7-3.1,1.7h-18.8C690.7,156.3,690.6,157.9,690.5,159.5z   M700.5,152.8c5.7,0,7.1-0.1,7.1-3.7c0-4.2-2.8-6.9-7.6-6.9s-7.9,3.5-8.9,10.6H700.5z"/>
<path d="M727.7,169.5v2.2c0,4.4,0.3,5.1,4.4,5.5v1.5c-3.2-0.2-5.7-0.3-7.6-0.3c-2.2,0-4.7,0.2-7.6,0.3v-1.5c4.2-0.4,4.4-1,4.4-5.9  v-22.6c0-4.1-0.3-5-4.2-5v-1.6c3.6-0.2,7.1-0.7,10.6-1.4v9.2c3-6.1,7.5-9.2,12.4-9.2c5.4,0,9.3,3.5,9.8,9.6  c3.2-6.4,7.6-9.6,12.6-9.6c7.6,0,9.9,4.9,9.9,14.7v16.2c0,4.4,0.3,5.1,4.4,5.5v1.5c-3.2-0.2-5.7-0.3-7.6-0.3c-2.2,0-4.7,0.2-7.6,0.3  v-1.5c4.2-0.4,4.4-1,4.4-5.9v-19.7c0-6-0.6-9.1-4.9-9.1c-4.7,0-11.1,6.1-11.1,14.3v15c0,4.4,0.2,5.1,4.4,5.5v1.5  c-3.2-0.2-5.8-0.3-7.7-0.3c-2.2,0-4.6,0.2-7.5,0.3v-1.5c4.2-0.4,4.4-1,4.4-5.9v-19.7c0-6-0.6-9.1-4.9-9.1c-4.7,0-11.2,6.1-11.2,14.3  L727.7,169.5z"/>
<path d="M791.3,171.7c0,4.4,0.3,5.1,4.4,5.5v1.5c-3.2-0.2-5.7-0.3-7.6-0.3c-2.2,0-4.7,0.2-7.6,0.3v-1.5c4.2-0.4,4.4-1,4.4-5.9v-22.6  c0-4.1-0.3-5-4.2-5v-1.6c3.5-0.2,7.1-0.7,10.5-1.4L791.3,171.7L791.3,171.7z"/>
<path d="M807.4,159.5c0,10.5,4.8,17,11.8,17c5.1,0,8.3-2.9,9.7-7.7l1.5,0.4c-1.6,6.7-6.7,10.5-13.9,10.5c-9.3,0-15.9-7.1-15.9-18.1  c0-12.5,7.9-20.9,16.5-20.9c6.8,0.1,12.4,5.5,12.6,12.4c0,1.7-1,1.7-3.1,1.7h-18.8C807.6,156.6,807.4,158,807.4,159.5z M817.4,152.8  c5.7,0,7.1-0.1,7.1-3.7c0-4.2-2.8-6.9-7.6-6.9s-8,3.5-8.9,10.6H817.4z"/>
<path d="M844.6,169.5v2.2c0,4.4,0.3,5.1,4.4,5.5v1.5c-3.2-0.2-5.7-0.3-7.6-0.3c-2.2,0-4.7,0.2-7.6,0.3v-1.5c4.2-0.4,4.4-1,4.4-5.9  v-22.6c0-4.1-0.3-5-4.1-5v-1.6c3.6-0.2,7.1-0.7,10.6-1.4v9.2c3.1-6.2,7.3-9.2,12.9-9.2c8,0,10.3,4.8,10.3,14.7v16.2  c0,4.4,0.3,5.1,4.4,5.5v1.5c-3.2-0.2-5.7-0.3-7.6-0.3c-2.2,0-4.7,0.2-7.6,0.3v-1.5c4.2-0.4,4.4-1,4.4-5.9v-19.7  c0-6.1-0.9-9.2-5.3-9.2c-4.9,0-11.6,6.1-11.6,14.4L844.6,169.5z"/>
<path d="M472.7,58l4.7,7.5c0.3,0.5,0.5,0.6,0.9,0.7v0.2h-3.8v-0.3c0.3,0,0.4-0.1,0.4-0.2c0-0.2-0.1-0.3-0.2-0.5l-3.7-5.9l-1.6,1.6  v4.3c0,0.3,0.2,0.6,0.5,0.6c0,0,0,0,0,0v0.3h-3.5v-0.3c0.3,0,0.6-0.3,0.6-0.6c0,0,0,0,0-0.1V53.2c0-0.3-0.2-0.6-0.5-0.6  c0,0,0,0-0.1,0v-0.3h3.5v0.3c-0.3,0-0.6,0.3-0.6,0.6c0,0,0,0,0,0v5.2l4.9-5.2c0.1-0.1,0.2-0.2,0.2-0.4c0-0.1-0.1-0.2-0.3-0.3v-0.3  h3.6v0.3c-0.4,0.1-0.8,0.4-1,0.7L472.7,58z"/>
<path d="M488.1,52.3v0.3c-0.3,0-0.6,0.3-0.6,0.6c0,0,0,0,0,0.1v8.3c0,2.3,0.8,3.2,3,3.2s3-0.8,3-3.2v-8.3c0-0.3-0.2-0.6-0.5-0.6  c0,0,0,0,0,0v-0.3h3.6v0.3c-0.3,0-0.6,0.3-0.6,0.6c0,0,0,0,0,0v8.7c0,3.9-2.4,4.8-5.3,4.8s-5.3-0.9-5.3-4.8v-8.7  c0-0.3-0.3-0.6-0.6-0.6c0,0,0,0,0,0v-0.3H488.1z"/>
<path d="M514.2,65.6c0,0.3,0.2,0.6,0.6,0.6c0,0,0,0,0,0v0.2h-3.7v-0.3c0.4,0,0.5-0.1,0.5-0.3c-0.1-0.4-0.3-0.8-0.5-1.1l-5.5-9l0,0  v9.8c0,0.3,0.2,0.6,0.5,0.6c0,0,0,0,0,0v0.3H503v-0.3c0.3,0,0.6-0.3,0.6-0.6c0,0,0,0,0-0.1V53.2c0-0.3-0.2-0.6-0.5-0.6  c0,0,0,0-0.1,0v-0.3h4v0.3c-0.2,0-0.4,0.1-0.4,0.4c0.1,0.4,0.2,0.7,0.5,1l5.2,8.3l0,0v-8.9c0-0.3-0.2-0.6-0.5-0.6c0,0,0,0-0.1,0  v-0.3h3.2v0.3c-0.3,0-0.6,0.3-0.6,0.6c0,0,0,0,0,0L514.2,65.6z"/>
<path d="M533.4,59.2v0.3c-0.2,0-0.3,0.1-0.3,0.4v3.8c0,0.2,0.1,0.4,0.2,0.4v0.3c-1.4,1.5-3.5,2.4-5.6,2.3c-4.1,0-6.6-3-6.6-7.1  c0-3.8,2.3-7.6,6.6-7.6c1.1,0,2.2,0.2,3.2,0.7c0.5,0.3,1.1,0.5,1.7,0.7c0.1,0,0.3,0,0.4-0.1l0.2,0.1l-1.6,2.6l-0.2-0.1  c0-0.1,0-0.2,0-0.3c0-0.9-1.4-1.6-3.3-1.6c-2.9,0-4.6,2.5-4.6,5.5s1.4,5.1,4.5,5.1c1.1,0,2.1-0.3,2.9-1v-2.5h-2.6  c-0.3,0-0.6,0.2-0.7,0.5h-0.3v-2.9h0.3c0,0.3,0.3,0.4,0.7,0.4L533.4,59.2z"/>
<path d="M549,64.5c0.6,0,0.7-0.2,0.8-0.5h0.2v2.9h-0.3c0-0.3-0.2-0.5-0.8-0.5h-9.2v-0.3c0.3,0,0.6-0.3,0.6-0.6c0,0,0,0,0-0.1V53.2  c0-0.3-0.2-0.6-0.5-0.6c0,0,0,0-0.1,0v-0.3h3.5v0.3c-0.3,0-0.6,0.3-0.6,0.6c0,0,0,0,0,0.1v11.2H549z"/>
<path d="M556.4,63.6c0.9,0,1.6,0.7,1.6,1.6s-0.7,1.6-1.6,1.6s-1.6-0.7-1.6-1.6l0,0C554.8,64.3,555.5,63.6,556.4,63.6z"/>
<path d="M569.3,52.3v0.3c-0.5,0-0.6,0.2-0.6,0.4c0.1,0.3,0.1,0.5,0.2,0.8l3,9.7l0,0l3.2-10c0.1-0.1,0.1-0.3,0.1-0.4  c0-0.3-0.1-0.4-0.5-0.5v-0.3h3.2v0.3c-0.5,0-0.6,0.4-0.7,0.8l-3.8,11.7c-0.1,0.2-0.2,0.5-0.2,0.8c0,0.2,0.1,0.3,0.3,0.4v0.3h-3.5  v-0.3c0.2,0,0.3-0.1,0.3-0.3c0,0,0,0,0,0c0-0.2-0.1-0.4-0.1-0.5l-4.1-12.1c-0.1-0.3-0.3-0.6-0.6-0.7v-0.3L569.3,52.3z"/>
<path d="M584.3,66.5v-0.3c0.3,0,0.6-0.3,0.6-0.6c0,0,0,0,0,0V53.2c0-0.3-0.2-0.6-0.5-0.6c0,0,0,0,0,0v-0.3h3.5v0.3  c-0.3,0-0.6,0.3-0.6,0.6c0,0,0,0,0,0.1v12.3c0,0.3,0.2,0.6,0.5,0.6c0,0,0,0,0.1,0v0.2H584.3z"/>
<path d="M598,66.5v-0.3c0.3,0,0.6-0.3,0.6-0.6c0,0,0,0,0,0V54.3h-3.2c-0.6,0-0.7,0.2-0.7,0.5h-0.3v-2.9h0.3c0,0.3,0.2,0.5,0.7,0.5  h8.7c0.6,0,0.7-0.2,0.7-0.5h0.3v2.9h-0.3c0-0.3-0.2-0.5-0.7-0.5h-3.2v11.2c0,0.3,0.2,0.6,0.5,0.6c0,0,0,0,0.1,0v0.2H598z"/>
<path d="M614.5,66.5v-0.3c0.3,0,0.6-0.3,0.6-0.6c0,0,0,0,0-0.1V54.3H612c-0.6,0-0.7,0.2-0.8,0.5h-0.3v-2.9h0.3  c0,0.3,0.2,0.5,0.8,0.5h8.7c0.6,0,0.7-0.2,0.8-0.5h0.3v2.9h-0.3c0-0.3-0.2-0.5-0.8-0.5h-3.2v11.2c0,0.3,0.2,0.6,0.5,0.6  c0,0,0,0,0.1,0v0.2H614.5z"/>
<path d="M635.8,60.6h-0.3c0-0.3-0.2-0.5-0.7-0.5h-4.1v4.3h6.8c0.6,0,0.7-0.2,0.7-0.5h0.3v2.9h-0.3c0-0.3-0.2-0.5-0.7-0.5h-9.8v-0.3  c0.3,0,0.6-0.3,0.6-0.6c0,0,0,0,0-0.1V53.2c0-0.3-0.2-0.6-0.5-0.6c0,0,0,0-0.1,0v-0.3h9.7c0.6,0,0.7-0.2,0.8-0.5h0.3v2.9h-0.3  c0-0.3-0.2-0.5-0.8-0.5h-6.8v3.9h4.1c0.6,0,0.7-0.2,0.7-0.5h0.3V60.6z"/>
<path d="M652.4,66.5v-0.3c0.4,0,0.6-0.1,0.6-0.3c0-0.2-0.1-0.3-0.1-0.5l-2.5-5H648v5.2c0,0.3,0.2,0.6,0.5,0.6c0,0,0,0,0.1,0v0.2  h-3.5v-0.3c0.3,0,0.6-0.3,0.6-0.6c0,0,0,0,0-0.1V53.2c0-0.3-0.2-0.6-0.5-0.6c0,0,0,0-0.1,0v-0.3h5.6c3.5,0,5.2,1.2,5.2,4.1  c0.2,1.9-1.1,3.5-3,3.8l2.6,5.4c0.1,0.3,0.4,0.6,0.8,0.6v0.2H652.4z M648,58.4h3c1.6,0,2.4-0.5,2.4-2s-0.8-2.1-2.2-2.1H648L648,58.4  z"/>
<path d="M673.2,65.6c0,0.3,0.2,0.6,0.5,0.6c0,0,0,0,0.1,0v0.2h-3.5v-0.3c0.3,0,0.6-0.3,0.6-0.6c0,0,0,0,0-0.1v-5.4h-6v5.4  c0,0.3,0.2,0.6,0.5,0.6c0,0,0,0,0.1,0v0.3H662v-0.3c0.3,0,0.6-0.3,0.6-0.6c0,0,0,0,0,0V53.2c0-0.3-0.2-0.6-0.5-0.6c0,0,0,0,0,0v-0.3  h3.5v0.3c-0.3,0-0.6,0.3-0.6,0.6c0,0,0,0,0,0.1v5h6v-5c0-0.3-0.2-0.6-0.5-0.6c0,0,0,0-0.1,0v-0.3h3.5v0.3c-0.3,0-0.6,0.3-0.6,0.6  c0,0,0,0,0,0.1L673.2,65.6z"/>
<path d="M688.6,60.6h-0.3c0-0.3-0.2-0.5-0.7-0.5h-4.1v4.3h6.8c0.6,0,0.7-0.2,0.7-0.5h0.3v2.9H691c0-0.3-0.2-0.5-0.7-0.5h-9.8v-0.3  c0.3,0,0.6-0.3,0.6-0.6c0,0,0,0,0-0.1V53.2c0-0.3-0.2-0.6-0.5-0.6c0,0,0,0-0.1,0v-0.3h9.7c0.6,0,0.7-0.2,0.8-0.5h0.3v2.9H691  c0-0.3-0.2-0.5-0.8-0.5h-6.8v3.9h4.1c0.6,0,0.7-0.2,0.7-0.5h0.3L688.6,60.6z"/>
<path d="M701.3,66.5v-0.3c0.3,0,0.6-0.3,0.6-0.6c0,0,0,0,0-0.1V54.3h-3.2c-0.5,0-0.7,0.2-0.7,0.5h-0.3v-2.9h0.2  c0,0.3,0.2,0.5,0.7,0.5h8.7c0.6,0,0.7-0.2,0.8-0.5h0.3v2.9h-0.3c0-0.3-0.2-0.5-0.8-0.5h-3.2v11.2c0,0.3,0.2,0.6,0.5,0.6  c0,0,0,0,0.1,0v0.2H701.3z"/>
<path d="M715.3,62.2l0.2,0.1v0.3c0,1.1,2.2,2,4.2,2c1.6,0,2.7-0.7,2.7-2.3c0-3.4-8.4-0.5-8.4-6c0-2.5,1.8-4.3,5-4.3  c1.2,0,2.5,0.2,3.7,0.7c0.8,0.3,1.2,0.7,1.4,0.7c0.1,0,0.2,0,0.3-0.1l0.2,0.1l-1.4,2.8l-0.2-0.1c0-1.1-1.3-2-3.6-2  c-2,0-3.1,0.7-3.1,1.9c0,3.5,8.5,0.6,8.5,6.3c0,2.8-2.2,4.4-5.2,4.4c-1.3,0-2.5-0.2-3.7-0.7c-0.5-0.3-1.1-0.6-1.6-0.8  c-0.1,0-0.1,0-0.2,0.1l-0.2-0.1L715.3,62.2z"/>
<path d="M753.1,65.6c0,0.3,0.2,0.6,0.5,0.6c0,0,0,0,0,0v0.2h-3.5v-0.3c0.3,0,0.6-0.3,0.6-0.6c0,0,0,0,0-0.1v-5.4h-6v5.4  c0,0.3,0.2,0.6,0.5,0.6c0,0,0,0,0.1,0v0.3h-3.5v-0.3c0.3,0,0.6-0.3,0.6-0.6c0,0,0,0,0-0.1V53.2c0-0.3-0.2-0.6-0.5-0.6c0,0,0,0-0.1,0  v-0.3h3.5v0.3c-0.3,0-0.6,0.3-0.6,0.6c0,0,0,0,0,0.1v5h6v-5c0-0.3-0.2-0.6-0.5-0.6c0,0,0,0-0.1,0v-0.3h3.5v0.3  c-0.3,0-0.6,0.3-0.6,0.6c0,0,0,0,0,0V65.6z"/>
<path d="M761.3,66.5v-0.3c0.3,0,0.6-0.3,0.6-0.6c0,0,0,0,0,0V53.2c0-0.3-0.2-0.6-0.5-0.6c0,0,0,0,0,0v-0.3h3.5v0.3  c-0.3,0-0.6,0.3-0.6,0.6c0,0,0,0,0,0.1v12.3c0,0.3,0.2,0.6,0.5,0.6c0,0,0,0,0.1,0v0.2H761.3z"/>
<path d="M773.4,62.2l0.2,0.1v0.3c0,1.1,2.2,2,4.2,2c1.6,0,2.7-0.7,2.7-2.3c0-3.4-8.4-0.5-8.4-6c0-2.5,1.8-4.3,5-4.3  c1.2,0,2.5,0.2,3.7,0.7c0.8,0.3,1.2,0.7,1.4,0.7c0.1,0,0.2,0,0.3-0.1l0.2,0.1l-1.4,2.8l-0.2-0.1c0-1.1-1.3-2-3.6-2  c-1.9,0-3.1,0.7-3.1,1.9c0,3.5,8.5,0.6,8.5,6.3c0,2.8-2.2,4.4-5.2,4.4c-1.3,0-2.5-0.2-3.7-0.7c-0.5-0.3-1.1-0.6-1.6-0.8  c-0.1,0-0.1,0-0.2,0.1l-0.2-0.1L773.4,62.2z"/>
<path d="M792.8,66.5v-0.3c0.3,0,0.6-0.3,0.6-0.6c0,0,0,0,0-0.1V54.3h-3.2c-0.6,0-0.7,0.2-0.7,0.5h-0.3v-2.9h0.3  c0,0.3,0.2,0.5,0.7,0.5h8.8c0.6,0,0.7-0.2,0.7-0.5h0.3v2.9h-0.3c0-0.3-0.2-0.5-0.7-0.5h-3.2v11.2c0,0.3,0.2,0.6,0.5,0.6  c0,0,0,0,0.1,0v0.2H792.8z"/>
<path d="M811.8,66.7c-4,0-6.3-2.9-6.3-7.3s2.4-7.3,6.3-7.3c4,0,6.3,2.9,6.3,7.3S815.8,66.7,811.8,66.7z M811.8,54.1  c-2.6,0-4,1.9-4,5.3s1.4,5.3,4,5.3s4-1.9,4-5.3S814.4,54.1,811.8,54.1z"/>
<path d="M831.7,66.5v-0.3c0.4,0,0.6-0.1,0.6-0.3c0-0.2-0.1-0.3-0.1-0.5l-2.5-5h-2.3v5.2c0,0.3,0.2,0.6,0.5,0.6c0,0,0,0,0.1,0v0.2  h-3.5v-0.3c0.3,0,0.6-0.3,0.6-0.6c0,0,0,0,0-0.1V53.2c0-0.3-0.2-0.6-0.5-0.6c0,0,0,0-0.1,0v-0.3h5.6c3.5,0,5.2,1.2,5.2,4.1  c0.2,1.9-1.1,3.5-3,3.8l2.6,5.4c0.1,0.3,0.4,0.6,0.8,0.6v0.2H831.7z M827.3,58.4h3c1.6,0,2.4-0.5,2.4-2s-0.8-2.1-2.2-2.1h-3.2  L827.3,58.4z"/>
<path d="M842.6,66.5v-0.3c0.3,0,0.6-0.3,0.6-0.6c0,0,0,0,0,0V53.2c0-0.3-0.2-0.6-0.5-0.6c0,0,0,0,0,0v-0.3h3.5v0.3  c-0.3,0-0.6,0.3-0.6,0.6c0,0,0,0,0,0.1v12.3c0,0.3,0.2,0.6,0.5,0.6c0,0,0,0,0.1,0v0.2H842.6z"/>
<path d="M860.8,60.6h-0.3c0-0.3-0.2-0.5-0.7-0.5h-4.1v4.3h6.8c0.6,0,0.7-0.2,0.8-0.5h0.3v2.9h-0.3c0-0.3-0.2-0.5-0.8-0.5h-9.8v-0.3  c0.3,0,0.6-0.3,0.6-0.6c0,0,0,0,0-0.1V53.2c0-0.3-0.2-0.6-0.5-0.6c0,0,0,0-0.1,0v-0.3h9.7c0.6,0,0.7-0.2,0.7-0.5h0.3v2.9h-0.3  c0-0.3-0.2-0.5-0.7-0.5h-6.8v3.9h4.1c0.6,0,0.7-0.2,0.7-0.5h0.3V60.6z"/>
<path d="M472.6,92.9c-4,0-6.3-2.9-6.3-7.3s2.4-7.3,6.3-7.3s6.3,2.9,6.3,7.3S476.5,92.9,472.6,92.9z M472.6,80.2c-2.6,0-4,1.9-4,5.3  s1.4,5.3,4,5.3s4-1.9,4-5.3S475.1,80.2,472.6,80.2z"/>
<path d="M496.6,79.7l-1.4,2.6h-0.3c0-1.5-2-2-2.9-2c-2.5,0.1-4.2,1.9-4.2,5.3s1.4,5.3,4.2,5.3c1.2,0,3.1-0.8,3.1-2.3l0.3-0.1  l1.7,2.4l-0.2,0.1c-0.1-0.1-0.2-0.1-0.3-0.1c-0.6,0-1.9,2-4.9,2c-4,0-6.3-2.9-6.3-7.3s2.7-7.3,6.1-7.3c1.1,0,2.2,0.2,3.1,0.7  c0.4,0.3,0.9,0.5,1.4,0.7c0.1,0,0.2,0,0.3-0.1L496.6,79.7z"/>
<path d="M514.3,91.7c0,0.3,0.2,0.6,0.5,0.6c0,0,0,0,0,0v0.3h-3.5v-0.3c0.3,0,0.6-0.3,0.6-0.6c0,0,0,0,0-0.1v-5.3h-6v5.3  c0,0.3,0.2,0.6,0.5,0.6c0,0,0,0,0.1,0v0.3H503v-0.3c0.3,0,0.6-0.3,0.6-0.6c0,0,0,0,0-0.1V79.4c0-0.3-0.2-0.6-0.5-0.6c0,0,0,0-0.1,0  v-0.3h3.5v0.3c-0.3,0-0.6,0.3-0.6,0.6c0,0,0,0,0,0.1v5h6v-5c0-0.3-0.2-0.6-0.5-0.6c0,0,0,0-0.1,0v-0.3h3.6v0.3  c-0.3,0-0.6,0.3-0.6,0.6c0,0,0,0,0,0L514.3,91.7z"/>
<path d="M531.1,92.6v-0.3c0.5-0.1,0.6-0.5,0.8-1.1l3.9-11.8c0-0.1,0.1-0.3,0-0.4c0-0.2-0.1-0.3-0.3-0.3c0,0,0,0,0,0v-0.3h3.8v0.3  c-0.2,0-0.3,0.2-0.3,0.4c0,0.3,0.1,0.6,0.2,0.8l3.7,11.7c0.2,0.6,0.3,0.7,0.6,0.7v0.3h-3.2v-0.3c0.2,0,0.3-0.1,0.3-0.2  c0-0.2-0.1-0.4-0.1-0.6l-0.9-2.7h-4.8l-1,2.6c-0.1,0.2-0.1,0.3-0.1,0.5c0,0.3,0.1,0.3,0.4,0.4v0.3L531.1,92.6z M535.4,86.8h3.5  l-1.7-5.7l0,0L535.4,86.8z"/>
<path d="M560.7,91.7c0,0.3,0.3,0.6,0.6,0.6c0,0,0,0,0,0v0.3h-3.7v-0.3c0.4,0,0.5-0.1,0.5-0.3c-0.1-0.4-0.3-0.8-0.5-1.1l-5.5-9l0,0  v9.8c0,0.3,0.2,0.6,0.5,0.6c0,0,0,0,0.1,0v0.3h-3.2v-0.3c0.3,0,0.6-0.3,0.6-0.6c0,0,0,0,0,0V79.4c0-0.3-0.2-0.6-0.5-0.6c0,0,0,0,0,0  v-0.3h4v0.3c-0.2,0-0.4,0.1-0.4,0.3c0.1,0.4,0.2,0.7,0.4,1l5.2,8.3h0.1v-8.9c0-0.3-0.2-0.6-0.5-0.6c0,0,0,0,0,0v-0.3h3.2v0.3  c-0.3,0-0.6,0.3-0.6,0.6c0,0,0,0,0,0L560.7,91.7z"/>
<path d="M571,92.6v-0.3c0.3,0,0.6-0.3,0.6-0.6c0,0,0,0,0-0.1V80.5h-3.2c-0.6,0-0.7,0.2-0.8,0.5h-0.3V78h0.3c0,0.3,0.2,0.5,0.8,0.5  h8.7c0.6,0,0.7-0.2,0.8-0.5h0.3v2.9h-0.3c0-0.3-0.2-0.5-0.8-0.5h-3.2v11.2c0,0.3,0.2,0.6,0.5,0.6c0,0,0,0,0.1,0v0.3L571,92.6z"/>
<path d="M584.3,92.6v-0.3c0.3,0,0.6-0.3,0.6-0.6c0,0,0,0,0-0.1V79.4c0-0.3-0.2-0.6-0.5-0.6c0,0,0,0-0.1,0v-0.3h3.5v0.3  c-0.3,0-0.6,0.3-0.6,0.6c0,0,0,0,0,0.1v12.3c0,0.3,0.2,0.6,0.5,0.6c0,0,0,0,0.1,0v0.3L584.3,92.6z"/>
<path d="M600.7,84.1l4.7,7.5c0.3,0.5,0.5,0.6,0.9,0.7v0.3h-3.8v-0.3c0.3,0,0.4-0.1,0.4-0.2c0-0.2-0.1-0.3-0.2-0.5l-3.7-5.9l-1.6,1.6  v4.3c0,0.3,0.2,0.6,0.5,0.6c0,0,0,0,0.1,0v0.3h-3.5v-0.3c0.3,0,0.6-0.3,0.6-0.6c0,0,0,0,0-0.1V79.4c0-0.3-0.2-0.6-0.5-0.6  c0,0,0,0-0.1,0v-0.3h3.5v0.3c-0.3,0-0.6,0.3-0.6,0.6c0,0,0,0,0,0.1v5.2l4.8-5.2c0.1-0.1,0.2-0.2,0.2-0.4c0-0.1-0.1-0.2-0.3-0.2v-0.3  h3.6v0.3c-0.4,0.1-0.8,0.4-1,0.7L600.7,84.1z"/>
<path d="M615,78.5v0.3c-0.5,0-0.6,0.2-0.6,0.4c0.1,0.3,0.1,0.6,0.2,0.8l3,9.7l0,0l3.2-10c0.1-0.1,0.1-0.3,0.1-0.4  c0-0.3-0.1-0.4-0.5-0.5v-0.3h3.2v0.3c-0.5,0-0.6,0.4-0.7,0.8l-3.8,11.7c-0.1,0.2-0.2,0.5-0.2,0.7c0,0.2,0.1,0.3,0.3,0.4c0,0,0,0,0,0  v0.3H616v-0.3c0.1,0,0.3-0.1,0.3-0.3c0,0,0,0,0,0c0-0.2-0.1-0.3-0.1-0.5L612,79.5c-0.1-0.3-0.3-0.6-0.6-0.7v-0.3H615z"/>
<path d="M629.4,92.6v-0.3c0.3,0,0.6-0.3,0.6-0.6c0,0,0,0,0-0.1V79.4c0-0.3-0.2-0.6-0.5-0.6c0,0,0,0-0.1,0v-0.3h3.5v0.3  c-0.3,0-0.6,0.3-0.6,0.6c0,0,0,0,0,0.1v12.3c0,0.3,0.2,0.6,0.5,0.6c0,0,0,0,0.1,0v0.3L629.4,92.6z"/>
<path d="M642.4,92.6v-0.3c0.3,0,0.6-0.3,0.6-0.6c0,0,0,0,0-0.1V80.5h-3.2c-0.6,0-0.7,0.2-0.7,0.5h-0.3V78h0.3c0,0.3,0.2,0.5,0.7,0.5  h8.7c0.6,0,0.7-0.2,0.7-0.5h0.3v2.9h-0.3c0-0.3-0.2-0.5-0.7-0.5h-3.2v11.2c0,0.3,0.2,0.6,0.5,0.6c0,0,0,0,0.1,0v0.3L642.4,92.6z"/>
<path d="M663.5,86.8h-0.3c0-0.3-0.2-0.5-0.8-0.5h-4.1v4.3h6.8c0.6,0,0.7-0.2,0.7-0.5h0.3v2.9H666c0-0.3-0.2-0.5-0.7-0.5h-9.8v-0.3  c0.3,0,0.6-0.3,0.6-0.6c0,0,0,0,0-0.1V79.4c0-0.3-0.2-0.6-0.5-0.6c0,0,0,0-0.1,0v-0.3h9.7c0.6,0,0.7-0.2,0.7-0.5h0.3v2.9H666  c0-0.3-0.2-0.5-0.7-0.5h-6.8v3.9h4.1c0.6,0,0.7-0.2,0.8-0.5h0.3L663.5,86.8z"/>
<path d="M679.8,92.6v-0.3c-0.3,0-0.6-0.3-0.6-0.6c0,0,0,0,0-0.1V80.5h3.2c0.6,0,0.7,0.2,0.7,0.5h0.3V78h-0.3c0,0.3-0.2,0.5-0.7,0.5  h-8.7c-0.6,0-0.7-0.2-0.7-0.5h-0.3v2.9h0.3c0-0.3,0.2-0.5,0.7-0.5h3.2v11.2c0,0.3-0.2,0.6-0.5,0.6c0,0,0,0,0,0v0.3L679.8,92.6z"/>
<path d="M690,88.4l0.2,0.1v0.3c0,1.1,2.2,2,4.3,2c1.6,0,2.7-0.8,2.7-2.3c0-3.3-8.4-0.5-8.4-6c0-2.5,1.8-4.3,5-4.3  c1.2,0,2.5,0.2,3.6,0.7c0.8,0.3,1.2,0.7,1.4,0.7c0.1,0,0.2,0,0.3-0.1l0.2,0.1l-1.4,2.8l-0.2-0.1c0-1.1-1.3-2-3.6-2  c-2,0-3.1,0.8-3.1,1.9c0,3.5,8.5,0.6,8.5,6.3c0,2.8-2.2,4.4-5.3,4.4c-1.3,0-2.5-0.2-3.7-0.7c-0.5-0.3-1.1-0.6-1.6-0.8  c-0.1,0-0.1,0-0.2,0.1l-0.2-0.1L690,88.4z"/>
<path d="M715.5,92.6v-0.3c0.5-0.1,0.6-0.5,0.8-1.1l3.9-11.8c0-0.1,0-0.3,0-0.4c0-0.2-0.1-0.3-0.3-0.3c0,0,0,0,0,0v-0.3h3.8v0.3  c-0.2,0-0.3,0.2-0.3,0.4c0,0.3,0.1,0.6,0.2,0.8l3.7,11.7c0.2,0.6,0.3,0.7,0.6,0.7v0.3h-3.2v-0.3c0.2,0,0.3-0.1,0.3-0.2  c0-0.2-0.1-0.4-0.1-0.6l-1-2.7h-4.8l-0.9,2.6c-0.1,0.2-0.1,0.3-0.1,0.5c0,0.3,0.1,0.3,0.4,0.4v0.3L715.5,92.6z M719.9,86.8h3.6  l-1.8-5.7h0L719.9,86.8z"/>
<path d="M739.6,84.1l4.7,7.5c0.2,0.4,0.5,0.7,0.9,0.7v0.3h-3.8v-0.3c0.3,0,0.4-0.1,0.4-0.2c0-0.2-0.1-0.3-0.2-0.5l-3.7-5.9l-1.5,1.6  v4.3c0,0.3,0.2,0.6,0.5,0.6c0,0,0,0,0.1,0v0.3h-3.5v-0.3c0.3,0,0.6-0.3,0.6-0.6c0,0,0,0,0,0V79.4c0-0.3-0.2-0.6-0.5-0.6c0,0,0,0,0,0  v-0.3h3.5v0.3c-0.3,0-0.6,0.3-0.6,0.6c0,0,0,0,0,0.1v5.2l4.8-5.2c0.1-0.1,0.2-0.2,0.2-0.4c0-0.1-0.1-0.2-0.3-0.2v-0.3h3.6v0.3  c-0.4,0.1-0.8,0.4-1,0.7L739.6,84.1z"/>
<path d="M749.9,92.6v-0.3c0.5-0.1,0.6-0.5,0.8-1.1l3.9-11.8c0-0.1,0-0.3,0-0.4c0-0.2-0.1-0.3-0.3-0.3c0,0,0,0,0,0v-0.3h3.8v0.3  c-0.2,0-0.3,0.2-0.3,0.4c0,0.3,0.1,0.6,0.2,0.8l3.7,11.7c0.2,0.6,0.2,0.7,0.6,0.7v0.3h-3.2v-0.3c0.2,0,0.3-0.1,0.3-0.2  c0-0.2-0.1-0.4-0.1-0.6l-1-2.7h-4.8l-1,2.6c-0.1,0.2-0.1,0.3-0.1,0.5c0,0.3,0.1,0.3,0.4,0.4v0.3L749.9,92.6z M754.2,86.8h3.6  l-1.7-5.7l0,0L754.2,86.8z"/>
<path d="M768.6,79.4c0-0.3-0.2-0.6-0.5-0.6c0,0,0,0-0.1,0v-0.3h5.3c4.4,0,6.8,2.3,6.8,6.9c0,4.9-2.1,7.2-7,7.2H768v-0.3  c0.3,0,0.6-0.3,0.6-0.6c0,0,0,0,0-0.1L768.6,79.4z M771,90.6h2.1c3.3,0,4.7-1.2,4.7-5.2c0-3.7-1.6-5-4.8-5h-2L771,90.6z"/>
<path d="M794.3,86.8H794c0-0.3-0.2-0.5-0.7-0.5h-4.1v4.3h6.8c0.6,0,0.7-0.2,0.7-0.5h0.3v2.9h-0.3c0-0.3-0.2-0.5-0.7-0.5h-9.8v-0.3  c0.3,0,0.6-0.3,0.6-0.6c0,0,0,0,0-0.1V79.4c0-0.3-0.2-0.6-0.5-0.6c0,0,0,0-0.1,0v-0.3h9.8c0.6,0,0.7-0.2,0.7-0.5h0.3v2.9h-0.3  c0-0.3-0.2-0.5-0.7-0.5h-6.8v3.9h4.1c0.5,0,0.7-0.2,0.7-0.5h0.3V86.8z"/>
<path d="M803.4,92.6v-0.3c0.4,0,0.5-0.3,0.5-0.6V79.4c0-0.4-0.1-0.6-0.5-0.6v-0.3h4.1v0.3c-0.2,0-0.4,0.2-0.4,0.4c0,0,0,0,0,0  c0.1,0.3,0.2,0.7,0.3,1l2.7,6.9l2.7-6.9c0.1-0.3,0.2-0.7,0.3-1c0-0.2-0.2-0.4-0.4-0.4v-0.2h4v0.3c-0.3,0.1-0.5,0.3-0.5,0.6v12.3  c0,0.3,0.2,0.6,0.5,0.6v0.3h-3v-0.3c0.3,0,0.4-0.3,0.4-0.6V82l0,0l-4,10.6L806.2,82l0,0v9.7c0,0.4,0,0.6,0.4,0.6v0.3L803.4,92.6z"/>
<path d="M823.6,92.6v-0.3c0.3,0,0.6-0.3,0.6-0.6c0,0,0,0,0-0.1V79.4c0-0.3-0.2-0.6-0.5-0.6c0,0,0,0-0.1,0v-0.3h3.5v0.3  c-0.3,0-0.6,0.3-0.6,0.6c0,0,0,0,0,0.1v12.3c0,0.3,0.2,0.6,0.5,0.6c0,0,0,0,0.1,0v0.3L823.6,92.6z"/>
<path d="M842.1,86.8h-0.3c0-0.3-0.2-0.5-0.8-0.5H837v4.3h6.8c0.6,0,0.7-0.2,0.7-0.5h0.3v2.9h-0.3c0-0.3-0.2-0.5-0.7-0.5H834v-0.3  c0.3,0,0.6-0.3,0.6-0.6c0,0,0,0,0-0.1V79.4c0-0.3-0.2-0.6-0.5-0.6c0,0,0,0-0.1,0v-0.3h9.7c0.6,0,0.7-0.2,0.7-0.5h0.3v2.9h-0.3  c0-0.3-0.2-0.5-0.7-0.5H837v3.9h4.1c0.6,0,0.7-0.2,0.8-0.5h0.3L842.1,86.8z"/>
<path d="M862.5,91.7c0,0.3,0.3,0.6,0.6,0.6c0,0,0,0,0,0v0.3h-3.7v-0.3c0.4,0,0.5-0.1,0.5-0.3c-0.1-0.4-0.3-0.8-0.5-1.1l-5.5-9l0,0  v9.8c0,0.3,0.2,0.6,0.5,0.6c0,0,0,0,0.1,0v0.3h-3.2v-0.3c0.3,0,0.6-0.3,0.6-0.6c0,0,0,0,0-0.1V79.4c0-0.3-0.2-0.6-0.5-0.6  c0,0,0,0-0.1,0v-0.3h4v0.3c-0.2,0-0.4,0.1-0.4,0.3c0.1,0.4,0.2,0.7,0.4,1l5.2,8.3l0,0v-8.9c0-0.3-0.2-0.6-0.5-0.6c0,0,0,0-0.1,0  v-0.3h3.2v0.3c-0.3,0-0.6,0.3-0.6,0.6c0,0,0,0,0,0L862.5,91.7z"/>
<path d="M292.6,125.2c2.8,0,3.9,2,3.9,4.4c0,2.5-0.7,4.6-3.9,4.6c-3,0-3.9-2-3.9-4.6C288.7,127.2,289.7,125.2,292.6,125.2z"/>
<path d="M788,125.2c2.8,0,3.9,2,3.9,4.4c0,2.5-0.7,4.6-3.9,4.6c-3,0-3.9-2-3.9-4.6C784,127.2,785.1,125.2,788,125.2z"/>
<path class="st0" d="M171.6,164.6c-0.9-1.9-2.1-3.7-3.4-5.3c-4.4-0.3-8.8-0.3-13.2,0.1l2.7,5.3L171.6,164.6z"/>
<path class="st0" d="M163.7,176.2c0.1,0.1,0.1,0.3,0.2,0.5c0.5-0.4,1-0.8,1.5-1.2C164.6,175.5,163.8,175.1,163.7,176.2z"/>
<path class="st0" d="M105.2,94.5c-0.3,1-0.4,2.1-0.2,3.2l10.9-2.9v-0.2C112.4,94.4,108.8,94.6,105.2,94.5z"/>
<path class="st0" d="M155.6,164.6c-0.4-2-1.2-3.8-2.3-5.5c-3.5-0.2-7-0.2-10.4,0v0.9l1.9,4.6H155.6z"/>
<path class="st0" d="M49.9,184.1c2.4,1.6,4.9,3.1,7.5,4.5l51.2-0.5l31.6,0.1l4.5-0.1l2.8,0.2c2.3-1.3,4.6-2.7,6.8-4.1l-101-0.1  L49.9,184.1z"/>
<path class="st0" d="M149.3,175.4c-0.1,2.7,1.5,4.9,2.9,7.1c1.4,0,2.8,0.1,4.2,0.1c2.3-1.6,4.4-3.3,6.6-5.1l-1-2.2  C157.4,175.5,153.9,174.9,149.3,175.4z"/>
<path class="st0" d="M119.6,94.8c-3.6,0.9-6.8,2.2-10.4,3.1c-0.4,0.4-1.5,0-1.1,0.8c4.7-0.1,9.4,0.1,14.1-0.1  C121.4,97.2,121.7,94.7,119.6,94.8z"/>
<path class="st0" d="M107.8,99.9c-0.1,0.1-0.4,0.2-0.1,0.4l16,3.8c0.3,0.1,0.6-0.1,0.6-0.4c0,0,0,0,0,0l-1.4-3.7  C118,99.9,112.7,100.1,107.8,99.9z"/>
<path class="st0" d="M81.8,114.6c-0.4,0.2-0.6,0.6-0.5,1.1c0.1,0.4,0.5,0.7,0.9,0.9c0.6,0.4,1.9-0.1,2.1,0.6  c-0.1,0.2-0.3,0.2-0.5,0.2c-0.5,0-0.7,0.4-0.7,0.9s0.3,1.1,0.9,1.1l34.6-0.2c0.6-0.1,0.7-0.7,0.8-1.2c-0.1-0.9-1.4-0.2-1.4-1.1  c0.9-0.4,2-0.2,3-0.6c0.6-0.3,1.4-0.9,1.3-1.7c-0.2,0-0.3-0.1-0.4-0.1L81.8,114.6z"/>
<path class="st0" d="M143.3,164.6c-0.5-1.9-1.1-3.7-1.9-5.5l-0.5-0.3h-9.6l1.8,5.8H143.3z"/>
<path class="st0" d="M83.5,163.1l1.1,0.1l16.4,0.1l0.7,0.2c5.6-0.1,11.4,0.2,16.8-0.3l0.6-0.3l0.1-29.1L119,121l-3-0.1L83.7,121  l-0.4,0.3c0.1,1,0,2.2,0.1,2.9c-0.6,4.8,0.4,8.7-0.1,13C83.8,145,83.4,153.8,83.5,163.1z"/>
<path class="st0" d="M61.2,190.5c26.1,12.6,56.4,12.5,82.4-0.3h-8.3L61.2,190.5z"/>
<path class="st0" d="M176.6,159.5l-1.4-0.2c-1.8,0.3-3.5-0.8-5.1,0.5c1,1.6,1.5,3.4,3,4.8h2.5c1.4-1.7,2.7-3.5,3.9-5.3  C178.5,159.4,177.5,159.5,176.6,159.5z"/>
<path class="st0" d="M140,31.9c0.6,0.4,1.4,0.4,2,0c1.9-1.4,2.9-3.6,2.9-6c-0.3-0.8-1.1-1.3-2-1.3c-2.1,0.5-2.9,2.7-3.6,4.5  C138.8,30.1,139.1,31.2,140,31.9z"/>
<path class="st0" d="M188,90.8c0.7,0,1.3-0.5,1.4-1.2c0.6-2.2-1.5-0.9-2.5-0.9c-0.7,0-0.7,0.5-0.6,1C186.4,90.4,187.2,90.9,188,90.8  z"/>
<path class="st0" d="M130.8,22.4c0.7-0.2,1.2-0.8,1.2-1.5c-0.2-0.9-0.9-1.5-1.8-1.6l-1.1,2.8C129.6,22.3,130.2,22.5,130.8,22.4z"/>
<path class="st0" d="M163.2,44.2c0.8,0,1.5-0.6,1.6-1.4c0-0.8-0.3-1.5-1-1.9l-2.2,2.1C162,43.6,162.5,44.2,163.2,44.2z"/>
<path class="st0" d="M183.8,92.2c0.7-0.1,1.4-0.7,1.6-1.4l-0.3-1.8c-1.1,0.1-2.1,0.5-3.1,0.7l0.2,1.3  C182.3,91.8,183,92.3,183.8,92.2z"/>
<path class="st0" d="M173.7,166.8c0.3-0.3,0.6-0.7,0.9-1l-0.7,0.2C173.7,166.2,173.7,166.5,173.7,166.8z"/>
<path class="st0" d="M37.1,173.8l1.2,1.2c0.1-0.4,0.2-0.8,0.4-1.1L37.1,173.8z"/>
<path class="st0" d="M53.6,178.5c0.2-1.7,1.6-3.5,0.6-5c-4.3,0.4-8.7-0.4-13.9-0.1c-0.5,0.7-0.9,1.5-1.3,2.3c2.9,2.6,5.9,5,9.1,7.2  c1.1,0.1,2.2,0.1,3.5,0.1L53.6,178.5z"/>
<path class="st0" d="M42.8,164.5l-13.4-0.1L29,165c2.1,2.5,4.2,5,6.5,7.3h4C41,169.7,42.6,167.3,42.8,164.5z"/>
<path class="st0" d="M33.2,157.3l-9.9-0.1c1.4,2.2,3,4.4,4.6,6.4h0.9C30.8,161.9,32.7,159.9,33.2,157.3z"/>
<path class="st0" d="M95.3,18c0.7-0.4,1-1.1,0.8-1.9c-0.4-0.9-1.5-1.4-2.4-1.1l0.2,3.2L95.3,18z"/>
<path class="st0" d="M57.6,163.7l0.9-0.5l1.7-5.5c-2.3-0.2-4.5-0.7-6.8-0.3c-0.5-0.3-1.1-0.2-1.6,0.1l-0.7-0.2  c-0.9,0.5-2.2-0.3-3,0.2c-1.1,1.8-2.1,3.8-2.8,5.8C49.7,163.8,53.6,163.5,57.6,163.7z"/>
<path class="st0" d="M144.3,166.7l-0.9-0.8h-9.9l2.4,8l11.2-0.1C146.2,171.5,145.3,169,144.3,166.7z"/>
<path class="st0" d="M119.3,19.2c0.8-0.4,1.3-1.2,1.1-2.1c-0.4-1-1.5-1.4-2.6-1.5l-0.7,3.5C117.8,19.2,118.6,19.3,119.3,19.2z"/>
<path class="st0" d="M56.3,173.7l-2.6,8.5l0.4,0.5c4.3-0.6,8-0.3,12-0.4l2.3-8.6C63.9,174.2,60.5,172.8,56.3,173.7z"/>
<path class="st0" d="M55.7,171.9c0.7-2.3,1.6-4.6,2.1-7.1c-4-0.2-9.2-0.4-12.4-0.4c-2.2,1-2.4,4-3.8,6c0,0.5-0.4,1.3,0.1,1.8  c4.1,0.3,9,0.1,13.6,0.1L55.7,171.9z"/>
<path class="st0" d="M46.4,157.7c-3.5-0.9-7.6-0.2-11.3-0.5c-1.1,0.7-1.6,2-2.3,3c-0.4,0.9-1.5,2-0.7,3l9.7,0.4l1.3-0.3  C45.3,162.3,45.8,159.8,46.4,157.7z"/>
<path class="st0" d="M63.4,164.9c-0.5-0.3-0.5-0.5-1.1-0.2c-1.3-0.2-2.2-0.6-3.3,0.4c-0.9,2.4-1.4,5-2.4,7.3h12l2-7.4L63.4,164.9z"/>
<path class="st0" d="M173.1,167.6l-0.5-0.9l-7.7-0.8l-0.4,0.4c-2-0.3-3.9-0.2-5.9,0.1l3.8,7.5h4.6  C169.1,171.9,171.2,169.8,173.1,167.6z"/>
<path class="st0" d="M145.3,174.9c-0.7,0.7-1.7,0.1-2.5,0c-0.4-0.1-0.9,0.2-1.3,0.2c-1.8-0.3-3.7-0.3-5.5-0.1l2.1,7  c4,0.3,8,0.2,11.9-0.2l-2.3-6.2C147.2,175,146.1,175,145.3,174.9z"/>
<path class="st0" d="M159.8,172.2c-0.7-2.1-1.6-4-2.9-5.8c-2.1-0.5-4.8,0.1-6.8-0.5c-1.3,1.1-2.9-0.7-4.1,0.1  c-0.6,2.7,1.4,4.8,2.1,7.2l0.5,0.6l11.8,0.1C160.2,173.5,160.6,172.5,159.8,172.2z"/>
<path class="st0" d="M120.6,104.9v-0.1c-5.3-1.5-10.8-2.8-16.1-4.1c-0.8,1.3-1,2.8-0.6,4.2C109.3,104.8,115.1,105,120.6,104.9z"/>
<path class="st0" d="M122,157.5v5.3c0,1.3,1.5,0.8,2.3,1.1c1.6,0.3-0.4,3.2,1.8,2.6c1.7,0.8,0.9,3.1,1,4.5c1.6,0.9,1.6,2.9,1.7,4.4  c0,1-0.6,1.9-1.4,2.4l-50.9,0.2l-1.3-0.6c-0.5-0.7-0.7-1.4-0.8-2.3c0.4-1.5,0.3-3.4,1.8-4.1c-0.1-1.2,0.1-2.3,0.4-3.5  c1.2-0.4,1.9-1.6,1.6-2.8c0.4-1.1,1.6-1.1,2.6-1.3v-6.7c-1.7-0.1-3.3-0.2-5-0.1l-0.6,0.6l-5.7,23.1c-0.1,0.4,0.3,0.5,0.5,0.6h62.5  l1.8,0.1c0.6-0.1,1.1-0.7,1.1-1.4l-6.3-21.7C127.1,156.8,124.2,157.5,122,157.5z"/>
<path class="st0" d="M82,104l0.1,0.2l14.1-3.9l0.5-0.4c-4.4-0.1-8.9,0.1-13.3-0.1L82,104z"/>
<path class="st0" d="M85.3,105c5-0.2,9.7,0.1,14.9-0.2c0.1-1,0-2.1-0.1-3.1c-0.1-0.5-0.4-1.1-1-0.9c-4.5,1.5-9.1,2.7-13.7,3.8  C85.2,104.6,85.2,104.9,85.3,105z"/>
<path class="st0" d="M130.3,108c0.6-0.2,1.9,0.4,1.9-0.5c-2.2-5.8-5.6-11-8.5-16.5c-6.5,0-13.5,0-18.8-0.1v2.3  c2.7,0.2,5.3,0.3,8,0.1c2.6,0,6.4-0.3,8.8,0.3c0.5,0.4,0.8,1,0.7,1.7c1.8,2,2,4.8,3.5,7c0,1.1,0.7,1.9,0.9,2.8  c-0.1,0.4-0.2,1-0.7,1.1l-22.3,0.1l-0.1,0.6c-0.3,0.6-0.7,1-1.3,1.3L130.3,108z"/>
<path class="st0" d="M96.2,98.5v-0.2c-3.5-1.1-7.4-2.7-10.8-3.3L84,98.2l0.1,0.2C88.2,98.4,92.4,98.6,96.2,98.5z"/>
<path class="st0" d="M102.1,99c0.4-0.1,0.8-0.4,0.9-0.8l-0.1-14.1c-0.1-0.6-0.8-1-1.4-0.9c-0.5,0-0.9,0.4-0.9,0.9  c0.1,4.6,0,9.6,0.1,14.4C100.9,99,101.4,99.1,102.1,99z"/>
<path class="st0" d="M101,107.7c-0.4-0.4-0.7-0.9-0.6-1.4l-21.1,0.1c-0.4,0.1-0.5-0.3-0.5-0.6c2-3.6,3.2-7.6,4.6-11.5l0.8-1.1  l14.4,0.1v-1.9c-5.8-0.1-11.3,0.1-17,0.1l-1,0.3l-3.8,6.5c-1.8,3.3-4.3,6.2-5,9.9l30.3-0.1L101,107.7z"/>
<path class="st0" d="M59.8,163.6c3.8,0.2,7.5,0.1,11.4,0.1l1.5-5.8c-2.9-0.4-7.7,0.1-10.5-0.4c-1.9,1.4-1.7,3.9-2.6,5.9L59.8,163.6z  "/>
<path class="st0" d="M131.5,111.9c0.5-0.1,1.1-0.4,1.1-1.1c0-0.5-0.4-1-0.9-1.1H125L71.9,110c-0.2,0.2-0.8,0.4-0.6,0.8  c0.4,0.6,0.7,1.4,1.5,1.3l31.1,0.1L131.5,111.9z"/>
<path class="st0" d="M77.1,173.2c0,0.8-0.2,1.9,0.5,2.4l47.7-0.1l0.6-0.4c0.4-1.1,0.2-2.3-0.6-3.1l-47.4-0.1  C77.4,172.2,77.4,172.8,77.1,173.2z"/>
<path class="st0" d="M80.2,167.2c0.2,0.1,0.6-0.1,0.6,0.2c-0.2,0.8-1.4,0.4-2.1,0.6c-0.3,0.8-0.3,1.6-0.1,2.4l8.9-0.1  c6.1-0.4,12.2,0.4,18.5-0.1c7-0.2,13,0.3,18.3,0.1c0.9-0.1,0.7-1.1,0.7-1.9c0.2-1.6-1.8-0.7-2.7-0.9c-0.9-0.6,0.6-0.6,0.6-0.9  s-0.2-0.5-0.4-0.6l-27.8-0.3c-5,0.1-8.5,0.2-13.9,0.1C80.2,165.8,80.1,166.6,80.2,167.2z"/>
<path class="st0" d="M90.2,94.2L90,94.7c2.5,1.6,5.7,1.5,8.4,2.8l0.4-0.1l-0.2-3L90.2,94.2z"/>
<path d="M102.6,7.1c-52.8,0-95.5,42.8-95.5,95.5s42.8,95.5,95.5,95.5s95.5-42.8,95.5-95.5l0,0C198.1,49.9,155.4,7.1,102.6,7.1z   M102.6,9.8c51.2,0,92.8,41.5,92.8,92.7c0,19.9-6.4,39.3-18.3,55.3l-38.6-0.1c-2.5,0-5-0.1-7.5-0.4c-1.7-3.3-6-1.5-9.2-2l-0.1-35.1  c1-0.7,1.5-1.8,1.3-3c1.3-0.6,2.3-1.5,3.1-2.7c3.2-0.6,6.7,0.5,8.4-3c1-3.9-1.8-7.5-3.5-10.9l-5.4-11.1c-0.9-0.9-2.2-0.6-3.3-0.7  l-17.2-0.1c-0.6-2.6,1-6.6-2.5-7.5c-1.1-0.3-2.4,0-3.3,0.8c-1.7,1.7-0.5,4.7-0.9,6.7c-5,0.8-12.1-0.5-18.2,0.6  c-0.9,0.6-2.2,0.9-2.7,1.8l-8.8,16.8c-0.4,1.9-0.2,4.2,0.9,5.6c2,1.6,5,0.9,7.5,1.6c0.7,1,1.6,1.8,2.8,2.2c0,1.2,0.2,2.3,0.6,3.4  l0.3,34.2c-2.6,0.4-6.2-1.1-7.8,1.3l-21.7,0.1l-24.6-0.5C-2.8,113.8,7.4,56,49.3,26.6C64.9,15.6,83.6,9.7,102.6,9.8L102.6,9.8z   M151.5,181.4c-1.2-1.9-2.3-3.8-2.2-6c3.6-0.2,7.2-0.2,10.8,0C157.4,177.5,154.5,179.6,151.5,181.4z M42.7,173.3  c4.2,0,7.9,0.4,11.6,0.1c1,1.6-0.4,3.3-0.6,5l-1,2.2C49.2,178.4,45.8,176,42.7,173.3L42.7,173.3z M31.9,162.5c0-0.8,0.7-1.6,1-2.3  c0.7-1,1.1-2.3,2.3-3c3.7,0.3,7.8-0.4,11.3,0.5c-0.6,2.1-1.1,4.5-3.3,5.6l-1.3,0.3l-9.4-0.4L31.9,162.5z M27.7,157.2h5.4  c-0.2,1.6-1.1,3-2.4,3.9C29.7,159.9,28.7,158.6,27.7,157.2L27.7,157.2z M58.4,163.2l-0.9,0.5c-4-0.3-7.8,0.1-12.4-0.5  c0.8-2,1.7-3.9,2.9-5.7c0.9-0.5,2.1,0.3,3-0.2l0.7,0.2c0.5-0.3,1.1-0.3,1.6-0.1c2.3-0.4,4.5,0.1,6.8,0.3L58.4,163.2z M62.1,157.4  c2.8,0.6,7.7,0.1,10.5,0.4l-1.5,5.8c-3.8,0-7.6,0.1-11.4-0.1l-0.2-0.2C60.4,161.4,60.2,158.8,62.1,157.4L62.1,157.4z M45.3,164.4  c3.2,0.1,8.4,0.2,12.4,0.4c-0.5,2.5-1.4,4.8-2.1,7.1l-0.5,0.4c-4.6-0.1-9.4,0.1-13.6-0.1c-0.4-0.4-0.1-1.3-0.1-1.8  C43,168.5,43.1,165.4,45.3,164.4L45.3,164.4z M54,181.5l2.4-7.8c4.2-0.9,7.6,0.5,12.1,0l-2.3,8.6c-3.6,0.1-6.9-0.1-10.5,0.2  C55,182.2,54.5,181.8,54,181.5z M56.7,172.3c1-2.3,1.4-5,2.4-7.3c1.1-1,2-0.6,3.3-0.4c0.6-0.3,0.6-0.1,1.1,0.2l7.2,0.1l-2,7.4H56.7z   M69.4,180.5l5.7-23.1l0.6-0.6c1.7-0.1,3.3-0.1,5,0.1v6.7c-1,0.1-2.1,0.2-2.6,1.3c0.3,1.2-0.5,2.4-1.6,2.8c-0.3,1.1-0.4,2.3-0.4,3.5  c-1.6,0.6-1.5,2.6-1.8,4.1c0,0.8,0.3,1.6,0.8,2.3l1.3,0.6l50.8-0.2c0.9-0.5,1.4-1.4,1.4-2.4c-0.1-1.6-0.1-3.6-1.7-4.4  c-0.1-1.5,0.7-3.8-1-4.5c-2.2,0.6-0.1-2.3-1.8-2.6c-0.8-0.4-2.3,0.1-2.3-1.1v-5.2c2.3,0,5.1-0.6,7,0.6l6.3,21.7  c0,0.7-0.4,1.2-1.1,1.4l-1.8-0.1H69.8C69.7,181,69.3,180.8,69.4,180.5z M100.2,104.8c-5.1,0.3-9.8,0-14.9,0.2  c-0.1-0.1-0.1-0.4,0-0.5c4.6-1,9.2-2.3,13.7-3.8c0.6-0.1,0.9,0.4,1,0.9C100.2,102.7,100.2,103.7,100.2,104.8z M96.8,99.9l-0.5,0.4  l-14.1,3.9l-0.1-0.2l1.5-4.2C87.9,100,92.4,99.8,96.8,99.9z M84,98.1l1.4-3.3c3.4,0.6,7.3,2.3,10.8,3.3v0.2c-3.9,0.1-8-0.1-12.1-0.1  L84,98.1z M98.4,97.4c-2.7-1.3-5.8-1.1-8.4-2.8l0.2-0.4l8.3,0.1l0.2,3L98.4,97.4z M98.5,93.3l-14.4-0.1l-0.8,1.1  c-1.4,3.9-2.6,7.9-4.6,11.5c0,0.3,0.1,0.6,0.5,0.6l21.1-0.1c0,0.5,0.2,1.1,0.6,1.4l0.9,0.5l-30.2,0.1c0.7-3.7,3.2-6.7,5-9.9l3.8-6.5  l1-0.3c5.8-0.1,11.2-0.2,17-0.1L98.5,93.3z M108.1,98.6c-0.4-0.8,0.8-0.4,1.1-0.8c3.6-0.9,6.8-2.2,10.4-3.1c2.1-0.1,1.8,2.4,2.6,3.7  C117.6,98.7,112.8,98.6,108.1,98.6z M122.9,100l1.4,3.7c0,0.3-0.3,0.5-0.6,0.4c0,0,0,0,0,0l-16-3.8c-0.3-0.2,0-0.3,0.1-0.4  C112.7,100.1,118,99.9,122.9,100L122.9,100z M115.9,94.9L105,97.7c-0.2-1.1-0.1-2.2,0.2-3.2c3.5,0.1,7.2-0.1,10.7,0.1L115.9,94.9z   M120.6,104.8v0.1c-5.5,0.1-11.3-0.1-16.7-0.1c-0.4-1.4-0.2-2.9,0.6-4.2C109.8,102,115.4,103.3,120.6,104.8L120.6,104.8z   M103.8,106.9l0.1-0.6l22.3-0.1c0.5-0.1,0.6-0.6,0.7-1.1c-0.2-0.9-0.9-1.8-0.9-2.8c-1.5-2.1-1.6-5-3.5-7c0.1-0.7-0.2-1.3-0.7-1.7  c-2.4-0.6-6.2-0.3-8.8-0.3c-2.7,0.2-5.3,0.2-8-0.1v-2.3c5.2,0.1,12.3,0.1,18.8,0.1c2.9,5.5,6.3,10.7,8.5,16.5  c-0.1,0.9-1.3,0.3-1.9,0.5l-27.8,0.2C103.1,107.9,103.5,107.4,103.8,106.9L103.8,106.9z M102.1,99c-0.7,0.1-1.2,0-1.5-0.6  c-0.1-4.8,0-9.7-0.1-14.4c0.1-0.5,0.5-0.8,0.9-0.9c0.6-0.1,1.3,0.3,1.4,0.9l0.1,14.1C102.9,98.6,102.5,99,102.1,99L102.1,99z   M71.9,110l53.1-0.3h6.8c0.5,0.2,0.8,0.6,0.9,1.1c0,0.6-0.6,0.9-1.1,1.1l-27.6,0.2l-31.1-0.1c-0.8,0.1-1.1-0.7-1.5-1.3  C71.1,110.4,71.7,110.2,71.9,110L71.9,110z M119.4,118c-0.1,0.5-0.2,1.1-0.8,1.2L84,119.4c-0.6,0-0.8-0.6-0.9-1.1s0.2-0.9,0.7-0.9  c0.2,0,0.4,0,0.5-0.2c-0.2-0.8-1.4-0.2-2.1-0.6c-0.4-0.1-0.8-0.4-0.9-0.9c-0.1-0.4,0.1-0.9,0.5-1.1l39.9-0.1c0.1,0,0.2,0.1,0.4,0.1  c0.1,0.9-0.6,1.4-1.3,1.7c-0.9,0.4-2.1,0.2-3,0.6C118,117.8,119.3,117,119.4,118L119.4,118z M83.4,137.2c0.6-4.3-0.5-8.2,0.1-13  c-0.1-0.7-0.1-1.9-0.1-2.9l0.4-0.3L116,121l3,0.1l0.3,12.9l-0.1,29.1l-0.6,0.3c-5.5,0.5-11.2,0.2-16.8,0.3l-0.7-0.2l-16.4-0.1  l-1.1-0.1C83.4,153.8,83.8,145,83.4,137.2L83.4,137.2z M94.8,165.7l27.8,0.3c0.2,0.1,0.5,0.4,0.4,0.6s-1.5,0.3-0.6,0.9  c0.9,0.2,2.9-0.7,2.7,0.9c0,0.7,0.2,1.8-0.7,1.9c-5.3,0.2-11.3-0.3-18.3-0.1c-6.3,0.4-12.4-0.4-18.5,0.1l-8.9,0.1  c-0.2-0.8-0.1-1.6,0.1-2.4c0.7-0.2,1.9,0.2,2.1-0.6c-0.1-0.4-0.4-0.1-0.6-0.2c-0.1-0.6,0-1.4,0.7-1.4  C86.2,165.9,89.8,165.8,94.8,165.7L94.8,165.7z M125.3,172.1c0.8,0.8,1,2.1,0.6,3.1l-0.6,0.4l-47.7,0.1c-0.7-0.5-0.5-1.6-0.5-2.4  c0.3-0.4,0.3-1,0.8-1.3L125.3,172.1z M143.4,164.7h-10.2l-1.8-5.8h9.6l0.5,0.3C142.3,160.9,142.9,162.8,143.4,164.7L143.4,164.7z   M142.9,160v-0.9c3.5-0.2,7-0.2,10.4,0c1.2,1.6,2,3.5,2.3,5.5h-10.9L142.9,160z M133.5,165.9h9.9l0.9,0.8c1,2.3,1.9,4.8,2.8,7.2  l-11.2,0.1L133.5,165.9z M141.6,175.2c0.4,0,0.9-0.3,1.3-0.2c0.8,0.1,1.8,0.7,2.5,0c0.8,0.1,1.9,0.1,2.5,0.8l2.3,6.2  c-4,0.4-8,0.5-11.9,0.2l-2.1-7C137.9,174.9,139.8,174.9,141.6,175.2L141.6,175.2z M148.6,173.9l-0.5-0.6c-0.7-2.4-2.7-4.5-2.1-7.2  c1.2-0.8,2.8,1,4.1-0.1c2,0.6,4.6,0,6.8,0.5c1.3,1.8,2.3,3.7,2.9,5.8c0.8,0.3,0.4,1.3,0.6,1.8L148.6,173.9z M155,159.4  c4.4-0.3,8.8-0.4,13.2-0.1c1.3,1.6,2.5,3.4,3.4,5.3l0,0h-13.9L155,159.4z M172.4,163.8c-0.9-1.2-1.5-2.6-2.2-4  c1.6-1.3,3.3-0.2,5.1-0.5l0.7,0.1C174.8,160.9,173.6,162.3,172.4,163.8L172.4,163.8z M33.6,164.5l9.3,0c-0.2,2.4-1.4,4.5-2.7,6.6  C37.9,169,35.6,166.8,33.6,164.5z M102.6,195.5c-10.1,0-20.1-1.7-29.6-5l59.9-0.2C123.2,193.6,113,195.4,102.6,195.5L102.6,195.5z   M108.6,188.1l-41,0.4c-3.2-1.3-6.4-2.8-9.5-4.5l88.9,0c-2.7,1.5-5.6,2.9-8.5,4.1L108.6,188.1z M162.4,173.7l-3.7-7.2  c2-0.3,3.9-0.3,5.9-0.1l0.4-0.4l5,0.5C167.6,169,165,171.4,162.4,173.7L162.4,173.7z"/>
<path d="M102.6,77.6c0.7,0.4,0.9-0.4,1-0.9l-0.3-45.5c-0.3-0.6-0.7-0.1-1.1-0.1c-0.2,4-0.1,8.1-0.1,12.1L102,76.4L102.6,77.6z"/>
<path d="M97.3,31.5c-1.1,0.2-0.5,1.5-0.9,2.2L92,75.9c0.1,2.1-1.1,4.2,0.5,5.8c0.1-0.2,0.5-0.3,0.5-0.6c0.9-5.3,1.3-10.7,1.8-16  l2.6-25.1C97.2,36.9,98.8,34.2,97.3,31.5z"/>
<path d="M116.6,82.6c0.2,0.1,0.4,0.4,0.6,0.2l-8.4-50.5l-0.2-0.1c-0.3,0.1-0.5,0.3-0.6,0.6l5.2,32.2  C114.5,70.5,114.9,76.8,116.6,82.6z"/>
<path d="M91.7,32.6L82.6,72c-0.3,0.8-0.2,1.7,0.2,2.5c0.2,0.2,0.4,0.1,0.6-0.1c1.9-6.5,4-13.1,5-19.8L93,32.8  C92.7,32.2,92.1,32.5,91.7,32.6z"/>
<path d="M114.6,32.8c-0.2,0.1-0.8,0.1-0.6,0.6l12.5,43.7c0.2,0.7,0.5,1.3,1,1.8c0.2,0.1,0.4-0.1,0.4-0.2l-13.1-45.8L114.6,32.8z"/>
<path d="M81.6,33.2c-0.6,0.3-1.1,0.7-1.4,1.3l-10,27.4c-0.6,0.7-0.6,1.6-1,2.4c-1.7,3.3-2.1,7.2-3.8,10.4l0.1,1.4  c0.4,0,0.9,0.3,1.1,0l14.9-39.7C81.7,35.4,82.9,33.9,81.6,33.2z"/>
<path d="M85.7,35.2c-0.7,1.2-1.2,2.5-1.6,3.8c-2.4,10.1-6.8,19.3-9.4,29.3c-1.1,3-2.5,5.8-3,9c-1.6,4.6-3.1,9.4-4.6,14  c-0.3,0.6-0.2,1.3,0.2,1.9l0.5-0.1c0.4-0.9,1-1.8,1.5-2.7l11.3-34.8l6.7-21.4l-0.4-0.8C85.9,33.2,86,34.5,85.7,35.2z"/>
<path d="M120.5,34.4c-0.1-0.7-1.6-1.6-1.4-0.3c0.8,1.4,1.4,3,1.9,4.5c4.5,11,8,22.4,12.3,33.4l0.9,1.1l0.4-0.5  c-2.1-5.5-4.3-11-6-16.7L120.5,34.4z"/>
<path d="M72.5,37.9c-0.3,1.9-1.6,3.3-2.2,5.1c-1.1,1.9-2,3.9-2.7,6c-4.5,10-9,19.9-13.1,30l-0.3,1.6c0.4,0.7,0.9,0.5,1.4,0.1  l17.6-39.4l2.2-4.8c0.1-0.4-0.3-0.6-0.4-0.7c-0.2,0.1-0.4-0.1-0.5-0.2C73.1,35.5,73.2,37.1,72.5,37.9z"/>
<path d="M127.9,36.5c0-0.5-1-1.2-1.2-0.4l1.9,4.8c8.7,16.5,15.4,34,24.5,50.4c0.6-0.1,0.1-0.6,0.1-1L127.9,36.5z"/>
<path d="M134,39.1L158,77.7c0.4,0.4,0.6,1.4,1.4,1.1c-0.1-0.4,0.2-1-0.3-1.2L135,38.8C134.7,38.4,134.2,38.8,134,39.1z"/>
<path d="M68.2,39.1c-0.6-0.9-1.3,0.1-2,0.1c-5,8-9.6,16.6-14.7,24.7c-2.1,4.8-5.2,9-7.9,13.5c0,0.9-1,1.2-1.1,2.1  c-1.7,3-3.2,5.9-5.1,8.9l-0.1,0.8c0.5,0.3,1.2,0.4,1.8,0.2L68,39.9L68.2,39.1z"/>
<path d="M91.9,22.6l-1,1.2l4.5-0.5c-2.1-0.6-0.9-2.8-1.5-4.1l0.7-0.2c1,1.3,2,2.7,2.9,4.1l3.3-0.2C99,22,98,20,96.9,18.6  c0.6-0.3,1.2-0.7,1.5-1.3c0.5-0.8,0.3-1.9-0.4-2.5c-2.6-1.6-5.2-0.5-8-0.5l1.3,1L91.9,22.6z M96.1,16.1c0.2,0.7-0.1,1.5-0.8,1.9  l-1.4,0.2L93.7,15C94.6,14.7,95.7,15.2,96.1,16.1L96.1,16.1z"/>
<path d="M116.7,20.4c1.6-0.1,3.9,0.7,5.5-0.7c0.5-0.5,0.8-1.3,0.6-2c-1.5-3.4-5.6-2.7-8.4-3.6l1,1.4l-1.4,7.2l-1.3,0.7l4.6,0.9  C115.3,23.1,116.8,21.8,116.7,20.4z M117.8,15.5c1.1,0.1,2.2,0.5,2.6,1.5c0.2,0.9-0.3,1.8-1.1,2.1c-0.8,0.1-1.5,0.1-2.3-0.2  L117.8,15.5z"/>
<path d="M79.2,23.8c0.3,0.9,1,1.5,1.8,1.9c1.3,0.3,2.7,0.2,3.9-0.5c4-2.1,0.4-6,0.5-8.9l0.9-1.3c-1.2,0.3-2.6,0.6-3.5,0.8l1.3,0.8  l1.4,6.4c-0.1,0.7-0.6,1.3-1.3,1.5c-0.9,0.3-1.9,0.1-2.4-0.7l-1.6-6.3l0.9-1.3l-4.4,1l1.3,0.8L79.2,23.8z"/>
<path d="M128.7,23c0.3-0.1,0.5,0.2,0.7,0.3l0.9,4.8l2.9,1c-1.2-1.6-1-3.7-1.6-5.5c0.7,0.1,1.4-0.1,1.9-0.5c0.8-0.3,0.9-1.4,0.9-2  c-1.3-2.8-4.7-3.1-7.2-4.2l0.7,1.2l-2.5,7.1l-1.5,0.6l4.3,1.5C126.6,26,128.5,24.3,128.7,23z M130.2,19.2c0.9,0.1,1.6,0.8,1.8,1.6  c0,0.7-0.5,1.4-1.2,1.5c-0.6,0.1-1.2,0-1.8-0.4L130.2,19.2z"/>
<path d="M68.1,21.8l3,6.8l-0.6,1.5c1.3-0.5,2.9-1.2,4.1-1.8c-0.5-0.1-1-0.3-1.4-0.6l-2.8-6.8c1-0.9,2.2-0.3,3.2,0.1  c-0.3-0.7-0.6-1.4-1-2.1l-7.5,3.3l0.8,2C66.5,23.2,66.9,22,68.1,21.8z"/>
<path d="M139.8,32.9c1.9,0.9,4.2,0.6,5.6-0.9c1.5-1.4,2-3.6,1.3-5.5c-0.5-1.2-1.5-2.2-2.8-2.7c-1.8-0.7-3.8-0.4-5.2,0.9  c-1.4,1.3-2,3.3-1.5,5.1C137.6,31.1,138.5,32.3,139.8,32.9z M139.3,29.1c0.7-1.7,1.5-4,3.6-4.5c0.9,0,1.7,0.5,2,1.3  c0.1,2.3-1,4.5-2.9,6c-0.6,0.4-1.4,0.4-2,0C139.1,31.3,138.8,30.1,139.3,29.1z"/>
<polygon points="62.5,33.3 62,34.5 66.1,32.4 64.6,32.1 60.9,25.5 61.5,24 57.5,26.2 58.9,26.5 "/>
<path d="M50.5,32.8l4.3,6.1l-0.3,1.5l3.6-2.6l-1.5-0.2l-4.2-6.1c0.8-1.1,2.2-0.8,3.2-0.6l-1.3-1.8l-6.7,4.7l1.2,1.8  C49,34.5,49.1,33.2,50.5,32.8z"/>
<path d="M153.1,41.7c1.4-0.5,2-3.5,4-2.9l-3.4-2.7l0.2,1.4c-1,0.8-1.3,2.5-2.7,2.3c-0.8-0.3-1.3-1-1.5-1.8c-0.5-1.9,1.1-3.6,2.5-4.8  c0.9-0.7,2.1-0.8,3.2-0.3c1.6,0.6,1.1,2.4,1.6,3.7c0.5-0.6,1-1.2,1.3-1.9c-0.8-1.4-2.1-2.5-3.6-3.2c-2.3-0.6-4.7-0.5-6.1,1.4  c-0.7,1.2-0.9,2.7-0.5,4.1C148.8,39.3,150.7,41.1,153.1,41.7z"/>
<path d="M45.3,47.1v1.5l5.1-5.7l-1.6-1.4c0.6,1.7-1,2.8-1.9,3.9L44.2,43c0.5-1,1.6-1.6,2.7-1.6l-2.1-2c0.2,1.2-0.3,2.4-1.4,3l-2.2-2  l1.9-2l1.9-0.2l-1.7-1.7l-5.1,5.7l1.6-0.2L45.3,47.1z"/>
<path d="M156.8,44.3l-1.5-0.2l3.1,3.4l-0.1-1.5l2.5-2.2c0.1,0.1,0.4,0.4,0.5,0.5l-1.4,4.8l2.1,2.2v-1.2c0.3-1.5,0.7-3,1.2-4.4  c0.9,0.6,2,0.6,2.9,0c2.1-3.3-2.1-5.7-3.9-8l0.1,1.5L156.8,44.3z M163.8,41c0.7,0.4,1,1.1,1,1.9c-0.1,0.8-0.8,1.4-1.6,1.4  c-0.7,0-1.2-0.6-1.7-1.1L163.8,41z"/>
<path d="M31.2,55l0.1-0.2c2,0.2,3.8,0.4,5.8,0.6c-0.6-1.8-1.3-3.9-1.8-5.6l4.8,3.9l0.2,1.5l2.8-3.5L41.6,52l-5.9-4.6v-1.6l-2.2,2.7  l1.5,4.7l-4.9-0.5L28,55.5l1.4-0.3l5.9,4.8l0.1,1.4c0.7-0.9,1.7-2.1,2.1-2.8l-1.4,0.3L31.2,55z"/>
<path d="M163.4,52.5l4.6,6.2l1.8-1.2c-1.7,0-2.6-1.5-3.5-2.8l2.9-2.1c0.9,1.1,1.4,1.8,1,3.1l2.4-1.8l-1.5-0.3L170,52l2.5-1.7  c0.8,1.3,2.2,2.5,1.4,4.1l1.8-1.3l-4.5-6.2l-0.2,1.5l-6.1,4.4L163.4,52.5z"/>
<path d="M174.8,60.4c-0.3,1.6,0.7,3.3-1,4.1c-0.7,0.1-1.4-0.2-1.7-0.7c-0.8-0.9,0.1-2,0.2-2.9c-0.7-0.1-1.5-0.1-2.2,0  c0.7,1.5,1,3.1,2.2,4.4c0.6,0.7,1.5,1.1,2.5,1c1-0.1,1.8-0.8,2.1-1.7c0.5-1.8-0.7-4,0.8-5.5c0.5-0.1,1,0,1.4,0.4  c0.9,0.9,0.2,1.9,0,2.8l2.1,0.1c-0.7-1.6-0.9-3.5-2.5-4.6c-0.8-0.5-1.9-0.6-2.7-0.1C175.1,58.3,174.7,59.3,174.8,60.4z"/>
<path d="M29.5,67.7c-3-1.8-4.2,2.3-6.8,2.5c-0.6-0.2-0.9-0.8-0.8-1.4c0.2-1.2,1.5-1.4,2.2-1.8l-1.2-1.8c-0.8,1.4-1.8,2.6-2,4.1  c-0.2,0.9,0.1,1.9,0.7,2.6c2.8,2,4.5-1.7,6.8-2.4c0.8,0.1,1.4,0.9,1.4,1.7c0,1.4-1.8,1.6-2.5,2.2l1.3,1.7c0.9-1.6,2.2-3.2,2.2-5  C30.7,69.1,30.3,68.2,29.5,67.7z"/>
<path d="M179.4,72.6l-0.7,0.7c-0.7,0.2-1.4,0-1.8-0.6c-0.9-1,0.2-2.3,0.2-3.2l-2.1-0.2c0.5,1.6,0.7,3.2,1.7,4.7  c0.7,1,1.9,1.5,3.1,1.2c0.8-0.2,1.4-0.8,1.8-1.6c0.5-1.7-0.5-4,1.3-5.2c0.6-0.2,1,0.4,1.3,0.7c0.7,1-0.2,1.8-0.3,2.7  c0.9,0,1.1,0.3,2.1,0.3c-0.5-1.5-0.6-3-1.6-4.4c-0.5-0.8-1.4-1.2-2.3-1.2C179,67.1,179.8,70.6,179.4,72.6z"/>
<polygon points="18.7,76.6 18.1,75.2 16.8,79.7 18.1,78.8 25.2,80.9 25.9,82.3 27.2,78 25.9,78.8 "/>
<path d="M177.8,79l1.4,4.4c0.2-0.5,0.4-1,0.6-1.4l7-2.3l1.4,0.7l-1.4-4.3l-0.6,1.4l-7.1,2.4L177.8,79z"/>
<path d="M22.1,85.3c0.5,1.4,2.1,2.8,0.9,4.3c-1.5,1.5-3.9,0.7-5.9,0.2c-1-0.2-1.7-1-1.7-2c-0.1-1.7,1.6-2.1,2.5-3.1l-2.3-0.5  c-0.7,1.2-1.1,2.5-1.2,3.9c0,2,1.3,3.9,3.1,4.7c1.3,0.5,2.7,0.4,3.9-0.2c2.2-1,3-3.3,3-5.6C25.2,85.4,23,85.7,22.1,85.3z"/>
<path d="M180.2,86.6c0.7,2.6,0.5,5.6,2.6,7.6c0.5,0.4,1.2,0.5,1.9,0.2c1-0.6,1.6-1.7,1.7-2.8l0.7,0.9c0.6,0.3,1.2,0.9,1.9,0.5  c3.1-2,0.7-5.7,0.6-8.4l-0.8,1.3l-7.2,1.6L180.2,86.6z M186.8,88.6c1,0,3.1-1.3,2.5,0.9c-0.2,0.9-1.1,1.4-2,1.1  c-0.5-0.1-0.9-0.5-1.1-1C186.1,89.1,186.1,88.7,186.8,88.6L186.8,88.6z M185,89.1l0.3,1.8c-0.2,0.7-0.8,1.3-1.6,1.4  c-0.8,0.1-1.5-0.5-1.6-1.2l-0.2-1.3C183,89.6,184,89.2,185,89.1L185,89.1z"/>
<path d="M21.7,97.3L15,97.5l-1.1-1.2l0.2,3.7c0.3-0.4,0.6-0.8,0.9-1.1c2.2-0.2,4.4-0.2,6.7-0.1c1,0.5,1.5,1.7,1,2.8  c-0.2,0.4-0.5,0.8-1,1l-6.5,0.3l-1-1l0.1,4.6l1-1.2c2.4-0.2,4.9,0.1,7.2-0.7c0.9-0.7,1.4-1.7,1.4-2.9C23.8,99.9,23.5,98,21.7,97.3z"/>
<path d="M182.5,98.3c-1.2,1.1-1.8,2.7-1.5,4.3c0.3,1.1,0.8,2.4,1.9,2.9l6.9,0.1l1.1,1.1l-0.1-3.7l-1,1.2c-2.6-0.5-6.5,1.4-7.8-1.5  c-0.2-1,0.3-2,1.1-2.4l6.5-0.2l1,1.1c0-1.4,0-3.2,0-4.6l-0.9,1.1C187.3,98.2,185,97.7,182.5,98.3z"/>
<path d="M21.3,109c1.6,0.9,1.5,2.5,1.4,4.1l-7.5,0.3l-1-1c0,1.4,0.2,3,0.3,4.5l0.9-1.2l7.4-0.5l1,1.2l-0.4-7.5L21.3,109z"/>
<path d="M189.9,109.8c-3.4-1.8-4,2.8-5.8,4.3c-0.8,0.3-1.6-0.1-1.9-0.9c0,0,0-0.1,0-0.1c-0.6-1.3,1-2.2,1.7-3l-1.9-1.2  c-0.2,1.9-0.9,3.4-0.4,5.4c0.3,1,1.1,1.8,2.1,2c3.1,0.6,3.1-3.3,5.1-4.7c0.6-0.4,1.3,0.3,1.5,0.8c0.4,1.3-0.8,2-1.5,2.6l1.7,1.3  c0.3-1.9,0.9-3.4,0.3-5.3L189.9,109.8z"/>
</svg>